# claycore OBJ export (vertex-color extension: v x y z r g b)
mtllib 44_quads_400.mtl
usemtl clay_default
o claycore
v -0.213823006 -0.114960663 -0.219749495 0.690196097 0.470588237 0.290196091
v -0.159306377 -0.12319243 -0.227312118 0.690196097 0.470588237 0.290196091
v -0.0839306414 -0.12319243 -0.227312118 0.690196097 0.470588237 0.290196091
v -0.00855493546 -0.12319243 -0.227312118 0.690196097 0.470588237 0.290196091
v 0.0668207705 -0.12319243 -0.227312118 0.690196097 0.470588237 0.290196091
v 0.142196506 -0.12319243 -0.227312118 0.690196097 0.470588237 0.290196091
v 0.202399597 -0.114960663 -0.219749495 0.690196097 0.470588237 0.290196091
v -0.222237393 -0.0608092546 -0.227312118 0.690196097 0.470588237 0.290196091
v -0.159306377 -0.0608092546 -0.25 0.690196097 0.470588237 0.290196091
v -0.0839306414 -0.0608092546 -0.25 0.690196097 0.470588237 0.290196091
v -0.00855493546 -0.0608092546 -0.25 0.690196097 0.470588237 0.290196091
v 0.0668207705 -0.0608092546 -0.25 0.690196097 0.470588237 0.290196091
v 0.142196506 -0.0608092546 -0.25 0.690196097 0.470588237 0.290196091
v 0.213883266 -0.0608092546 -0.227312118 0.690196097 0.470588237 0.290196091
v -0.222237393 0.0145664662 -0.227312118 0.690196097 0.470588237 0.290196091
v -0.159306377 0.0145664662 -0.25 0.690196097 0.470588237 0.290196091
v -0.0839306414 0.0145664662 -0.25 0.690196097 0.470588237 0.290196091
v -0.00855493546 0.0145664662 -0.25 0.690196097 0.470588237 0.290196091
v 0.0668207705 0.0145664662 -0.25 0.690196097 0.470588237 0.290196091
v 0.142196506 0.0145664662 -0.250004292 0.690196097 0.470588237 0.290196091
v 0.21502164 0.0145664662 -0.227316424 0.690196097 0.470588237 0.290196091
v -0.218549788 0.0899421722 -0.223694891 0.690196097 0.470588237 0.290196091
v -0.159306377 0.0899421722 -0.242765546 0.690196097 0.470588237 0.290196091
v -0.0839306414 0.0899421722 -0.242765546 0.690196097 0.470588237 0.290196091
v -0.00855493546 0.0899421722 -0.242765546 0.690196097 0.470588237 0.290196091
v 0.0668207705 0.0899421722 -0.242920399 0.690196097 0.470588237 0.290196091
v 0.142196506 0.0899421722 -0.243381619 0.690239847 0.4706285 0.29021886
v 0.215117261 0.0899421722 -0.224156126 0.690435946 0.470808893 0.290320814
v -0.208906189 0.135086685 -0.214926541 0.690196097 0.470588237 0.290196091
v -0.159306377 0.138815016 -0.220077693 0.690196097 0.470588237 0.290196091
v -0.0839306414 0.138947368 -0.220077693 0.690196097 0.470588237 0.290196091
v -0.00855493546 0.139473736 -0.220077693 0.690196097 0.470588237 0.290196091
v 0.0668207705 0.140533805 -0.220232531 0.690398157 0.470774144 0.290301174
v 0.142196506 0.141884953 -0.220689431 0.691456974 0.471748263 0.290851772
v 0.202828526 0.137590036 -0.215535745 0.692043185 0.472287595 0.29115659
v -0.22275348 -0.123720497 -0.166936398 0.690196097 0.470588237 0.290196091
v -0.159306377 -0.148943871 -0.166936398 0.690196097 0.470588237 0.290196091
v -0.0839306414 -0.148943871 -0.166936398 0.690196097 0.470588237 0.290196091
v -0.00855493546 -0.148943871 -0.166936398 0.690196097 0.470588237 0.290196091
v 0.0668207705 -0.148943871 -0.166936398 0.690196097 0.470588237 0.290196091
v 0.142196506 -0.148957461 -0.166936398 0.690196097 0.470588237 0.290196091
v 0.214546114 -0.123734079 -0.166936398 0.690196097 0.470588237 0.290196091
v -0.2486265 -0.0608092546 -0.166936398 0.690196097 0.470588237 0.290196091
v 0.251454026 -0.0610259771 -0.165680289 0.691275001 0.471580803 0.29075712
v 0.256670147 -0.0360452197 -0.139717638 0.695124388 0.475122273 0.292758822
v -0.248740271 0.0145664662 -0.166936398 0.690196097 0.470588237 0.290196091
v 0.252709478 0.0145664662 -0.190704048 0.692488849 0.472697586 0.291388333
v 0.260232985 0.0145664662 -0.15301621 0.697584689 0.47738573 0.294038147
v -0.240735188 0.0899421722 -0.166936398 0.690196097 0.470588237 0.290196091
v 0.252805114 0.0899421722 -0.199235484 0.694268465 0.474334806 0.292313725
v 0.26500982 0.0899421722 -0.161547616 0.701869667 0.481327951 0.296266377
v -0.214862183 0.138815016 -0.166936398 0.690196097 0.470588237 0.290196091
v -0.159306377 0.150202304 -0.166936398 0.690196097 0.470588237 0.290196091
v -0.0839306414 0.151342943 -0.166936398 0.690196097 0.470588237 0.290196091
v -0.00855493546 0.154751971 -0.166936398 0.691743493 0.472011834 0.291000724
v 0.0668207705 0.160837486 -0.166936398 0.696360648 0.476259619 0.293401659
v 0.142196506 0.167704552 -0.166936398 0.701904595 0.481360078 0.296284527
v 0.223801136 0.152391762 -0.172505423 0.700282753 0.479867965 0.295441151
v 0.263039231 0.140015066 -0.151092872 0.707923651 0.486897588 0.299414426
v -0.223269567 -0.124248564 -0.0915606767 0.690196097 0.470588237 0.290196091
v -0.159306377 -0.150000006 -0.0915606767 0.690196097 0.470588237 0.290196091
v -0.0839306414 -0.150000006 -0.0915606767 0.690196097 0.470588237 0.290196091
v -0.00855493546 -0.1500386 -0.0915606767 0.690196097 0.470588237 0.290196091
v 0.0668207705 -0.150381386 -0.0915606767 0.690196335 0.470588475 0.29019624
v 0.142196506 -0.151066869 -0.0915606767 0.690593362 0.470953703 0.290402651
v 0.224254891 -0.121733263 -0.0934241787 0.690913022 0.471247792 0.290568888
v 0.257512301 -0.101923339 -0.0695412681 0.696910739 0.476765722 0.293687701
v -0.249772459 -0.0608092546 -0.0915606767 0.690196097 0.470588237 0.290196091
v 0.253835261 -0.0862957016 -0.119791746 0.693188369 0.473341107 0.29175207
v 0.263011456 -0.0610259771 -0.0934241787 0.699485898 0.479134828 0.295026779
v -0.25 0.0145664662 -0.0915606767 0.690196097 0.470588237 0.290196091
v 0.281057328 0.0145664662 -0.0915606767 0.713695824 0.492207974 0.302415937
v -0.241365045 0.0899421722 -0.0915606767 0.690196097 0.470588237 0.290196091
v 0.304315627 0.094988212 -0.0850079134 0.73342818 0.510361791 0.312676787
v 0.331920803 0.123477459 -0.0555141568 0.7549752 0.530184984 0.323881209
v -0.214862183 0.138924494 -0.0915606767 0.690196097 0.470588237 0.290196091
v -0.159306377 0.1512613 -0.0915606767 0.690196097 0.470588237 0.290196091
v -0.0839306414 0.156130731 -0.0915606767 0.69272846 0.472918034 0.291512936
v -0.00855493546 0.168000221 -0.0915606767 0.702077687 0.481519312 0.29637453
v 0.0658095852 0.186446339 -0.0893237814 0.718135357 0.496292353 0.304724514
v 0.142196506 0.191137493 -0.110846967 0.722897232 0.500673294 0.30720067
v 0.217572212 0.188800067 -0.115515508 0.725167036 0.502761543 0.308380991
v 0.295384884 0.164430961 -0.0873483196 0.742010057 0.518257082 0.317139328
v 0.331920803 0.138596341 -0.0555141568 0.756982267 0.532031536 0.324924916
v 0.0902607068 0.210290611 -0.0627072677 0.739301741 0.515765429 0.315731019
v 0.142196506 0.221869439 -0.0731591061 0.747810483 0.523593485 0.320155561
v 0.217572212 0.230746627 -0.0778276473 0.754443467 0.529695868 0.323604733
v 0.277480036 0.222126827 -0.0689319968 0.760254145 0.53504169 0.326626301
v -0.223269567 -0.124248564 -0.0161849484 0.690196097 0.470588237 0.290196091
v -0.159306377 -0.150000006 -0.0161849484 0.690196097 0.470588237 0.290196091
v -0.0839306414 -0.15002957 -0.0161849484 0.690196097 0.470588237 0.290196091
v -0.00855493546 -0.150629848 -0.0161849484 0.690284967 0.470669985 0.290242285
v 0.0668207705 -0.152459681 -0.0161849484 0.691858709 0.472117811 0.291060627
v 0.142196506 -0.154882669 -0.0161849484 0.694075346 0.474157125 0.292213291
v 0.217572212 -0.137569338 -0.0161849484 0.695110321 0.475109309 0.292751491
v 0.263213456 -0.108794644 -0.0161849484 0.703230381 0.482579768 0.296973914
v -0.249772459 -0.0608092546 -0.0161849484 0.690196097 0.470588237 0.290196091
v 0.28666833 -0.0608092546 -0.0161849484 0.718301535 0.496445239 0.304810911
v -0.25 0.0145664662 -0.0161849484 0.690196097 0.470588237 0.290196091
v 0.315279722 0.00983412005 -0.0186881684 0.743587315 0.519708216 0.317959547
v 0.343638808 0.0318044573 0.0047682575 0.761114001 0.535832763 0.327073425
v -0.241365045 0.0899421722 -0.0161849484 0.690196097 0.470588237 0.290196091
v 0.324019641 0.0732269958 -0.045482222 0.750007927 0.525615156 0.321298242
v 0.362905055 0.100373425 -0.0120175993 0.7696141 0.543652833 0.331493467
v 0.406056017 0.127519846 0.0214470252 0.781038642 0.554163396 0.337434202
v -0.214862183 0.139369518 -0.0161849484 0.690196097 0.470588237 0.290196091
v -0.159306377 0.154289126 -0.0161849484 0.691432416 0.471725672 0.290838987
v -0.0839306414 0.1672149 -0.0161849484 0.701448023 0.480939984 0.296047091
v -0.0111571755 0.18993561 -0.0192126576 0.721877575 0.499735177 0.306670457
v 0.0400102176 0.198585629 -0.0463563688 0.729719698 0.506949961 0.310748369
v 0.327730566 0.188846827 -0.0523949079 0.765150905 0.539546669 0.329172581
v 0.361557096 0.164360121 -0.024447741 0.772883594 0.546660781 0.3331936
v 0.407807291 0.165317893 0.0194879584 0.783009768 0.555976868 0.338459224
v 0.0122332238 0.216705009 0.00389411184 0.744106531 0.520185828 0.318229496
v 0.0655245781 0.238623038 -0.0176165998 0.757935107 0.532908142 0.32542038
v 0.142196506 0.259557307 -0.0393415764 0.768067956 0.542230368 0.33068943
v 0.217572212 0.268434465 -0.0479538292 0.771828532 0.545690119 0.332644969
v 0.298742354 0.244628698 -0.0440688357 0.773196101 0.546948314 0.333356112
v 0.372309983 0.238554835 -0.00237933034 0.783503354 0.556430936 0.338715851
v 0.408361435 0.212003753 0.018872194 0.785220742 0.558010936 0.339608908
v 0.0910389349 0.290064484 0.0111231701 0.77759093 0.550991535 0.335641414
v 0.147847593 0.315541595 0.00211234251 0.783092141 0.556052625 0.33850202
v 0.217572212 0.316069365 -0.0144049767 0.783278346 0.556223929 0.338598847
v 0.294062704 0.320868969 -0.00217608432 0.785966575 0.558697104 0.339996725
v 0.349842221 0.29894343 0.00797722861 0.786631644 0.559309006 0.340342581
v 0.176740229 0.355233282 0.0200607982 0.787151992 0.559787691 0.340613157
v 0.217572212 0.358102888 0.0173639003 0.787480772 0.560090184 0.340784132
v 0.269680649 0.35807541 0.0174263436 0.787765086 0.560351729 0.340931952
v -0.223269567 -0.124248564 0.0591907799 0.690196097 0.470588237 0.290196091
v -0.159306377 -0.150000006 0.0591907799 0.690196097 0.470588237 0.290196091
v -0.0839306414 -0.150303453 0.0591907799 0.690196097 0.470588237 0.290196091
v -0.00855493546 -0.152294934 0.0591907799 0.691706717 0.471977979 0.290981591
v 0.0668207705 -0.156442285 0.0591907799 0.69547683 0.475446492 0.292942047
v 0.142196506 -0.160841152 0.0591907799 0.699376583 0.479034305 0.294969946
v 0.217572212 -0.150394678 0.0591907799 0.701434016 0.48092714 0.29603982
v 0.273195297 -0.118252888 0.0591907799 0.713539064 0.492063761 0.302334428
v -0.249772459 -0.0608092546 0.0591907799 0.690196097 0.470588237 0.290196091
v 0.312968433 -0.0611298606 0.054966379 0.741459906 0.517750919 0.316853255
v 0.341185719 -0.0362183563 0.0772753581 0.759807646 0.534630895 0.326394081
v -0.25 0.0145664662 0.0591907799 0.690196097 0.470588237 0.290196091
v 0.327527076 -0.0184460133 0.0270248652 0.751837373 0.527298212 0.322249562
v 0.367537528 0.0129799033 0.0575128794 0.771289468 0.545194149 0.332364649
v 0.411378592 0.0444058217 0.0880008936 0.782073975 0.555115938 0.337972581
v -0.241434574 0.0899421722 0.0591907799 0.690196097 0.470588237 0.290196091
v 0.393889278 0.0772693753 0.0377504043 0.77896601 0.552256584 0.336356461
v 0.419599354 0.0974136367 0.0614017025 0.783940315 0.55683291 0.338943064
v -0.214931712 0.140198946 0.0591907799 0.690212488 0.470603317 0.290204614
v -0.159306377 0.159424037 0.0591907799 0.695247769 0.47523579 0.292822957
v -0.0802275985 0.185242102 0.0599338301 0.7168383 0.495099068 0.304050028
v -0.0380172282 0.198016718 0.0353039466 0.729255795 0.506523132 0.310507119
v 0.436364889 0.165317893 0.0591907799 0.786651373 0.559327126 0.340352833
v -0.0526336692 0.208112165 0.0855544433 0.737583101 0.514184296 0.314837337
v -0.00874574203 0.237533823 0.0598793477 0.757297873 0.53232193 0.325089037
v 0.0407884456 0.266955495 0.0342042558 0.770696163 0.544648349 0.332056135
v 0.400092691 0.262254238 0.0263512731 0.787174642 0.559808493 0.340624928
v 0.429547608 0.238554865 0.0545622222 0.78789109 0.56046766 0.340997487
v 0.0205257423 0.288277477 0.0844547451 0.777104139 0.550543666 0.335388273
v 0.0667849705 0.314296246 0.0592888147 0.783033311 0.555998504 0.338471442
v 0.126489744 0.340315014 0.0341228805 0.786211431 0.55892235 0.340124041
v 0.319931179 0.34919396 0.0248815864 0.788042426 0.560606897 0.341076195
v 0.372309983 0.320868969 0.0406807363 0.788188517 0.560741305 0.341152161
v 0.418874443 0.316069365 0.0806290507 0.788235307 0.56078434 0.34117648
v 0.0927814916 0.363523334 0.0843733773 0.7877056 0.560297012 0.340901017
v 0.147847593 0.373855084 0.0592251904 0.788146019 0.560702205 0.341130048
v 0.217572212 0.393468797 0.0591907799 0.788235307 0.56078434 0.34117648
v 0.294062704 0.382389247 0.0536804087 0.788235307 0.56078434 0.34117648
v 0.368323684 0.368519038 0.0795267895 0.788235307 0.56078434 0.34117648
v 0.407127142 0.35493806 0.0954894051 0.788235307 0.56078434 0.34117648
v -0.223269567 -0.124248564 0.134566501 0.690196097 0.470588237 0.290196091
v -0.159306377 -0.150000423 0.134566501 0.690196097 0.470588237 0.290196091
v -0.0839306414 -0.150826797 0.134566501 0.690406919 0.47078222 0.290305734
v -0.00855493546 -0.154348657 0.134566501 0.693591774 0.473712265 0.291961849
v 0.0668207705 -0.1603771 0.134566501 0.698967636 0.47865808 0.294757307
v 0.142196506 -0.166192919 0.134566501 0.704064369 0.483347088 0.297407597
v 0.217572212 -0.160106018 0.134566501 0.706851244 0.485910952 0.298856765
v 0.282648414 -0.125016466 0.134566501 0.7227 0.500491858 0.30709812
v -0.249772459 -0.0608092546 0.134566501 0.690196097 0.470588237 0.290196091
v 0.320336312 -0.0862679183 0.134566501 0.747410893 0.523225844 0.319947779
v 0.35318929 -0.0485800505 0.134566501 0.76562494 0.539982796 0.329419076
v -0.25 0.0145664662 0.134566501 0.690196097 0.470588237 0.290196091
v 0.390877128 -0.00587707944 0.134566501 0.778256416 0.551603734 0.335987449
v 0.420960724 0.0318107754 0.134566501 0.78401196 0.556898892 0.338980347
v -0.24166052 0.0899421722 0.134566501 0.690196097 0.470588237 0.290196091
v 0.458462 0.0956559628 0.139802605 0.787634194 0.560231328 0.340863883
v 0.482621908 0.124590397 0.168418571 0.788202167 0.560753822 0.341159225
v -0.215157628 0.141167834 0.134566501 0.690717995 0.471068352 0.290467471
v -0.159306377 0.164807171 0.134566501 0.699569821 0.479212046 0.29507041
v -0.0989084244 0.188957244 0.134566501 0.720683455 0.498636633 0.306049526
v 0.472256958 0.165317893 0.121152848 0.788196445 0.560748577 0.341156244
v 0.485844314 0.165317893 0.158840701 0.788235307 0.56078434 0.34117648
v -0.0612205602 0.216915086 0.134566501 0.744520068 0.520566285 0.31844455
v -0.0280475821 0.254602969 0.134566501 0.765906215 0.540241599 0.329565346
v 0.471356988 0.240693629 0.12264318 0.788235307 0.56078434 0.34117648
v 0.485380232 0.240693629 0.160331041 0.788235307 0.56078434 0.34117648
v 0.00964025594 0.303015053 0.134566501 0.780811369 0.553954303 0.337316036
v 0.0404259153 0.340702951 0.134566501 0.786274731 0.558980584 0.340156972
v 0.453808933 0.309360445 0.140994862 0.788235307 0.56078434 0.34117648
v 0.482003123 0.279762536 0.170405671 0.788235307 0.56078434 0.34117648
v 0.0781137794 0.376646876 0.134566501 0.788184404 0.560737491 0.341150016
v 0.140126869 0.415571779 0.131180346 0.788235307 0.56078434 0.34117648
v 0.217572212 0.42681101 0.102476537 0.788235307 0.56078434 0.34117648
v 0.292947948 0.423996449 0.109191805 0.788235307 0.56078434 0.34117648
v 0.364562839 0.403496653 0.136552557 0.788235307 0.56078434 0.34117648
v 0.416044354 0.364367485 0.134566501 0.788235307 0.56078434 0.34117648
v 0.163872361 0.435501784 0.154048145 0.788235307 0.56078434 0.34117648
v 0.217572212 0.440385163 0.14016439 0.788235307 0.56078434 0.34117648
v 0.292947948 0.438023835 0.146879658 0.788235307 0.56078434 0.34117648
v 0.336930364 0.432353348 0.163001835 0.788235307 0.56078434 0.34117648
v -0.211400181 -0.112596266 0.209942207 0.690196097 0.470588237 0.290196091
v -0.159306377 -0.127087057 0.209942207 0.690196097 0.470588237 0.290196091
v -0.0839306414 -0.130965799 0.209942207 0.690464199 0.470834851 0.290335476
v -0.00855493546 -0.140300348 0.209942207 0.694221318 0.474291414 0.292289197
v 0.0668207705 -0.151947275 0.209942207 0.700413465 0.479988217 0.29550913
v 0.142196506 -0.161603779 0.209942207 0.706139326 0.485255986 0.298486561
v 0.217572212 -0.158850849 0.209942207 0.709278703 0.488144249 0.300119042
v 0.285715997 -0.125368983 0.209942207 0.727207124 0.504638374 0.309441805
v -0.22593981 -0.0608092546 0.209942207 0.690196097 0.470588237 0.290196091
v 0.323403895 -0.0917169079 0.209942207 0.750644445 0.526200771 0.321629226
v 0.360396206 -0.05402904 0.209942207 0.768856704 0.542956054 0.331099629
v -0.226685569 0.0145664662 0.209942207 0.690196097 0.470588237 0.290196091
v 0.398084104 -0.015207395 0.209942207 0.779871583 0.553089738 0.336827338
v 0.428610206 0.022480458 0.209942207 0.785110354 0.557909369 0.339551508
v -0.222294375 0.0899421722 0.209942207 0.690196097 0.470588237 0.290196091
v 0.466298044 0.0835718513 0.209942207 0.787947416 0.560519457 0.341026783
v 0.483997464 0.121259704 0.209942207 0.788230598 0.560779989 0.341174006
v -0.207142681 0.135411754 0.209942207 0.691152096 0.471467763 0.290693223
v -0.159306377 0.156813264 0.209942207 0.69958812 0.479228884 0.295079947
v -0.102901801 0.186719418 0.209942207 0.722032189 0.499877423 0.306750834
v 0.49180451 0.165317893 0.209942207 0.788235307 0.56078434 0.34117648
v -0.0652139336 0.222835273 0.209942207 0.749480665 0.525130033 0.32102406
v -0.0349604189 0.26052314 0.209942207 0.768779635 0.542885125 0.331059545
v 0.490884662 0.240693629 0.209942207 0.788235307 0.56078434 0.34117648
v 0.00272741728 0.313922644 0.209942207 0.782860041 0.555839121 0.33838135
v 0.030757755 0.351610512 0.209942207 0.787071466 0.559713602 0.340571284
v 0.463031411 0.319856405 0.209942207 0.788235307 0.56078434 0.34117648
v 0.483077586 0.282168537 0.209942207 0.788235307 0.56078434 0.34117648
v 0.0684456229 0.385804266 0.209942207 0.788235307 0.56078434 0.34117648
v 0.116275944 0.423492104 0.209942207 0.788235307 0.56078434 0.34117648
v 0.379291058 0.411886901 0.209942207 0.788235307 0.56078434 0.34117648
v 0.425343573 0.374199063 0.209942207 0.788235307 0.56078434 0.34117648
v 0.153963804 0.439452052 0.209942207 0.788235307 0.56078434 0.34117648
v 0.217572212 0.453154504 0.209942207 0.788235307 0.56078434 0.34117648
v 0.292947948 0.448450208 0.209942207 0.788235307 0.56078434 0.34117648
v 0.34160322 0.434747756 0.209942207 0.788235307 0.56078434 0.34117648
v -0.198685288 -0.100128353 0.248432755 0.690196097 0.470588237 0.290196091
v -0.159306377 -0.101335198 0.249124378 0.690196097 0.470588237 0.290196091
v -0.0839306414 -0.104661427 0.251521915 0.692837894 0.473018706 0.291569829
v -0.00855493546 -0.111903936 0.257659018 0.699956954 0.479568213 0.295271724
v 0.0668207705 -0.120182715 0.266673744 0.709493935 0.488342285 0.30023098
v 0.142196506 -0.126671165 0.275696039 0.718466938 0.496597409 0.304896921
v 0.217572212 -0.126223147 0.278559804 0.723784029 0.501489162 0.307661802
v 0.274911493 -0.115004353 0.267467499 0.733806491 0.510709822 0.312873483
v -0.199550703 -0.0608092546 0.248880193 0.690196097 0.470588237 0.290196091
v -0.159306377 -0.0608092546 0.252143323 0.690691471 0.471043974 0.290453672
v -0.0839306414 -0.0608092546 0.26120311 0.697602868 0.477402508 0.294047624
v -0.00855493546 -0.0608092546 0.280549347 0.713426709 0.491960377 0.302275985
v 0.0644333214 -0.0603359453 0.305479258 0.735234857 0.512023866 0.313616216
v 0.142196506 -0.0852076411 0.313383877 0.742327511 0.518549144 0.317304403
v 0.217572212 -0.0916686431 0.316247672 0.746504486 0.522391975 0.319476455
v 0.297201246 -0.0817513913 0.289682806 0.754972696 0.530182779 0.323879927
v 0.351476312 -0.0434296951 0.285317928 0.772652268 0.546447933 0.333073288
v -0.200182691 0.0145664662 0.249326646 0.690563619 0.470926344 0.290387183
v -0.159306377 0.0145664662 0.256325096 0.693743944 0.473852217 0.292040944
v -0.0839306414 0.0145664662 0.274866611 0.708737552 0.487646401 0.299837649
v -0.00911486801 0.0117832627 0.30643481 0.736187041 0.512899935 0.314111382
v 0.0377164483 -0.0151974419 0.318653822 0.746015847 0.521942437 0.319222361
v 0.389164209 -0.00765595492 0.285317928 0.781412601 0.554507494 0.337628692
v 0.423176765 0.0300318971 0.285317928 0.785917222 0.558651686 0.339971066
v -0.199883044 0.0899421722 0.249267459 0.691910386 0.472165376 0.291087538
v -0.159306377 0.0899421722 0.259801865 0.697667599 0.477462023 0.294081271
v -0.0839306414 0.0899421722 0.2886675 0.720830441 0.498771846 0.306125939
v -0.036129266 0.0899421722 0.315820932 0.744576931 0.520618618 0.318474114
v 0.462081045 0.0942072645 0.283002198 0.788122892 0.560680926 0.341118038
v 0.483632803 0.122175895 0.256333113 0.788235068 0.560784101 0.341176361
v -0.198312297 0.128663793 0.248415276 0.693031549 0.473196864 0.291670531
v -0.159306377 0.137015015 0.254125774 0.699768722 0.479395032 0.295173854
v -0.0834223032 0.164668053 0.275513947 0.729637027 0.506873906 0.310705394
v -0.0404988565 0.165317893 0.314265966 0.754224896 0.529494762 0.323491096
v 0.477085054 0.165317893 0.308306396 0.788235307 0.56078434 0.34117648
v 0.487347364 0.165317893 0.270618498 0.788235307 0.56078434 0.34117648
v -0.057958167 0.216005757 0.262793779 0.753159404 0.528514504 0.322937012
v -0.0281108264 0.240956038 0.286878586 0.769722402 0.543752491 0.331549764
v 0.476562977 0.240693629 0.306545317 0.788235307 0.56078434 0.34117648
v 0.486891627 0.240693629 0.268857449 0.788235307 0.56078434 0.34117648
v 0.00975754578 0.305466473 0.285317928 0.783816099 0.556718647 0.338878483
v 0.0368442386 0.343154311 0.285317928 0.787366629 0.559985161 0.340724766
v 0.459128559 0.310732782 0.281593323 0.788235307 0.56078434 0.34117648
v 0.483025193 0.282049865 0.253985018 0.788235307 0.56078434 0.34117648
v 0.0745321065 0.380535603 0.285317928 0.788235307 0.56078434 0.34117648
v 0.127113089 0.418223441 0.285317928 0.788235307 0.56078434 0.34117648
v 0.319089472 0.426220298 0.313713431 0.788235307 0.56078434 0.34117648
v 0.365783304 0.409076929 0.287280083 0.788235307 0.56078434 0.34117648
v 0.420008242 0.368559569 0.285317928 0.788235307 0.56078434 0.34117648
v 0.164800957 0.435137808 0.285317928 0.788235307 0.56078434 0.34117648
v 0.217572212 0.444598913 0.285317928 0.788235307 0.56078434 0.34117648
v 0.293557703 0.439261377 0.287280083 0.788235307 0.56078434 0.34117648
v 0.338964462 0.433398932 0.263462931 0.788235307 0.56078434 0.34117648
v 0.0879669413 -0.034895163 0.33115527 0.754221737 0.529491842 0.323489428
v 0.142196506 -0.0475197732 0.341885686 0.76040417 0.535179675 0.326704293
v 0.217572212 -0.0539807715 0.349589914 0.764722943 0.53915292 0.328950047
v 0.292947948 -0.0434493124 0.342269659 0.77121985 0.545130134 0.332328439
v 0.338263988 -0.0298368428 0.330269188 0.776511073 0.549998045 0.335079879
v 0.0156370681 0.0350530297 0.332187891 0.754860342 0.530079365 0.323821515
v 0.0703358874 0.0177964419 0.356796831 0.767184317 0.54141742 0.330229968
v 0.142196506 0.00181917474 0.379573554 0.77535671 0.548936009 0.33447963
v 0.217572212 -0.010434689 0.387277782 0.777499735 0.550907612 0.335593998
v 0.292947948 -0.00458699232 0.379957527 0.780405164 0.553580642 0.337104827
v 0.364094228 0.0185908619 0.356923223 0.784523606 0.55736953 0.339246392
v 0.413332105 0.0429133438 0.333326817 0.786725521 0.559395313 0.340391397
v 0.00155857112 0.0899421722 0.344399869 0.76181674 0.536479235 0.327438831
v 0.0521174669 0.0899421722 0.382087767 0.776110351 0.54962939 0.334871501
v 0.389924437 0.0724584237 0.383577317 0.787663102 0.560257912 0.340878963
v 0.424194962 0.0945270658 0.359348685 0.78809613 0.560656309 0.34110409
v -0.00281101838 0.165317893 0.352881551 0.770158768 0.544153929 0.331776679
v 0.0379410088 0.165317893 0.390569448 0.780088782 0.553289533 0.336940289
v 0.44684267 0.165317893 0.360693634 0.788235307 0.56078434 0.34117648
v 0.00863429159 0.240693629 0.346164703 0.780076027 0.553277791 0.336933672
v 0.0423227251 0.240693629 0.383852541 0.784914851 0.557729542 0.339449853
v 0.445713937 0.240693629 0.360693634 0.788235307 0.56078434 0.34117648
v 0.0211233739 0.290055305 0.333393335 0.784731865 0.557561159 0.339354694
v 0.0656036511 0.317634434 0.362416029 0.788004577 0.560572088 0.341056496
v 0.114768922 0.345213532 0.391438723 0.788235307 0.56078434 0.34117648
v 0.386262506 0.331776291 0.380492926 0.788235307 0.56078434 0.34117648
v 0.421988159 0.310418397 0.35749805 0.788235307 0.56078434 0.34117648
v 0.0891579613 0.367485791 0.341188222 0.788235307 0.56078434 0.34117648
v 0.146545395 0.389727026 0.357776403 0.788235307 0.56078434 0.34117648
v 0.217572212 0.405671656 0.365532786 0.788235307 0.56078434 0.34117648
v 0.293557703 0.406066418 0.356362343 0.788235307 0.56078434 0.34117648
v 0.364011824 0.372579366 0.35749805 0.788235307 0.56078434 0.34117648
v 0.411159128 0.359204084 0.330242425 0.788235307 0.56078434 0.34117648
v 0.178321883 0.429749459 0.324114174 0.788235307 0.56078434 0.34117648
v 0.217572212 0.431829572 0.327844918 0.788235307 0.56078434 0.34117648
v 0.268838942 0.432111889 0.32834959 0.788235307 0.56078434 0.34117648
v 0.102955319 0.0507903248 0.399264246 0.779510081 0.552757144 0.336639345
v 0.142196506 0.0395070277 0.40687716 0.781620383 0.554698586 0.337736726
v 0.217572212 0.027253164 0.415583342 0.783295333 0.556239605 0.338607699
v 0.292947948 0.0331008583 0.412007928 0.785018325 0.557824671 0.339503646
v 0.339673996 0.0445188545 0.404059082 0.7863276 0.559029222 0.34018448
v 0.0898053348 0.0899421722 0.407773942 0.781842709 0.55490315 0.337852329
v 0.142196506 0.0899421722 0.431756675 0.785551548 0.558315277 0.339780927
v 0.217572212 0.0899421722 0.449507266 0.787139058 0.55977577 0.340606421
v 0.292947948 0.0899421722 0.443239987 0.787618816 0.560217202 0.340855926
v 0.366208971 0.0945270658 0.414074332 0.787977636 0.560547292 0.341042489
v 0.408684731 0.122708894 0.400915504 0.788225949 0.560775757 0.341171622
v 0.0756288767 0.165317893 0.418051124 0.784703374 0.557534933 0.339339852
v 0.142196506 0.165317893 0.452837169 0.787666321 0.560260892 0.340880603
v 0.211864904 0.163995698 0.470580488 0.788172483 0.560726583 0.341143817
v 0.291114032 0.163995698 0.466533482 0.788235307 0.56078434 0.34117648
v 0.368323684 0.165317893 0.435167521 0.788235307 0.56078434 0.34117648
v 0.413456976 0.165317893 0.405440211 0.788235307 0.56078434 0.34117648
v 0.0800105929 0.240693629 0.416353762 0.787349105 0.559969008 0.340715647
v 0.142196506 0.240693629 0.45044446 0.788235307 0.56078434 0.34117648
v 0.211864904 0.24052842 0.46959281 0.788235307 0.56078434 0.34117648
v 0.291114032 0.24052842 0.465680987 0.788235307 0.56078434 0.34117648
v 0.368323684 0.240693629 0.434065878 0.788235307 0.56078434 0.34117648
v 0.41285032 0.240693629 0.404864907 0.788235307 0.56078434 0.34117648
v 0.0922998413 0.294963002 0.407758862 0.788201571 0.560753286 0.341158926
v 0.140815109 0.3184807 0.420651585 0.788235307 0.56078434 0.34117648
v 0.217572212 0.316069365 0.44382444 0.788235307 0.56078434 0.34117648
v 0.292947948 0.316069365 0.438443542 0.788235307 0.56078434 0.34117648
v 0.364011824 0.310418397 0.411780596 0.788235307 0.56078434 0.34117648
v 0.407875866 0.28152582 0.400148422 0.788235307 0.56078434 0.34117648
v 0.165019408 0.36171779 0.40551582 0.788235307 0.56078434 0.34117648
v 0.217572212 0.367983818 0.411135167 0.788235307 0.56078434 0.34117648
v 0.292947948 0.36479643 0.408277094 0.788235307 0.56078434 0.34117648
v 0.336012036 0.35746792 0.401705027 0.788235307 0.56078434 0.34117648
v 0.233185247 0.1882395 0.475682229 0.788235307 0.56078434 0.34117648
v 0.264766157 0.1882395 0.475682229 0.788235307 0.56078434 0.34117648
v 0.233185247 0.21529305 0.475682229 0.788235307 0.56078434 0.34117648
v 0.264766157 0.21529305 0.475682229 0.788235307 0.56078434 0.34117648
vn -0.332015842 -0.429186106 -0.839978993
vn -0.00221649138 -0.606112599 -0.795375824
vn -0.00221649138 -0.606112599 -0.795375824
vn -0.00221649138 -0.606112599 -0.795375824
vn -0.00221649138 -0.606112599 -0.795375824
vn -0.00221649138 -0.606112599 -0.795375824
vn -0.00369734084 -0.453506321 -0.891245365
vn -0.577221334 -0.00222581299 -0.816584706
vn 0 0 -1
vn 0 0 -1
vn 0 0 -1
vn 0 0 -1
vn 0 0 -1
vn 0.218878403 0.00120605703 -0.9757514
vn -0.577221334 -0.00222581299 -0.816584706
vn 0 0 -1
vn 0 0 -1
vn 0 0 -1
vn 0 0 -1
vn 0 0 -1
vn 0.278525054 0.0014854545 -0.960427821
vn -0.529575765 -0.00277993758 -0.848258138
vn 0 0 -1
vn 0 0 -1
vn 0 0 -1
vn 0 0 -1
vn -0.00300552626 -0.00338412914 -0.999989808
vn 0.327359766 -0.00637465017 -0.94487828
vn 0.00074039551 0.981256843 -0.192703053
vn 0.00102443714 0.943935037 -0.330129534
vn 0.00101512636 0.944402754 -0.328789175
vn 0.000977870543 0.94621551 -0.323535472
vn -0.011189633 0.938069403 -0.346266657
vn -0.0176471099 0.918731928 -0.394487381
vn -0.00846983399 0.954121768 -0.299298882
vn -0.68081975 -0.732446194 -0.00265885191
vn 0 -1 0
vn 0 -1 0
vn 0 -1 0
vn 0 -1 0
vn 0 -1 0
vn 0.314252496 -0.949337244 0.0020675119
vn -1 0 0
vn 0.996803224 -0.0448429361 -0.066123426
vn 0.98293227 -0.101010345 -0.153756484
vn -1 0 0
vn 0.992761552 -0.0495646745 -0.10939803
vn 0.972818315 -0.103218623 -0.207293153
vn -1 0 0
vn 0.986236453 -0.0421672612 -0.159873515
vn 0.953546524 -0.0837019086 -0.289383948
vn -0.166387588 0.986060202 0.000558785163
vn 0 1 0
vn 0 1 0
vn -0.0529081002 0.995213747 -0.0821607634
vn -0.0876344517 0.976813078 -0.19533667
vn -0.0772930607 0.949326277 -0.304639727
vn 0.295568734 0.910229921 -0.290035844
vn 0.831043184 0.392946243 -0.393650085
vn -0.681516886 -0.731797874 -0.00256107817
vn 0 -1 0
vn 0 -1 0
vn 0 -1 0
vn -0.000360625476 -0.999999702 -0.000697015144
vn -0.00925230235 -0.999519646 -0.0295779817
vn 0.748028398 -0.662396491 -0.041041296
vn 0.975601852 -0.158446506 -0.151972771
vn -1 0 0
vn 0.990273118 -0.0896929428 -0.106368244
vn 0.964498878 -0.169037282 -0.20289959
vn -1 0 0
vn 0.89553678 -0.227683738 -0.38232708
vn -1 0 0
vn 0.803649008 -0.193888828 -0.562632501
vn 0.731252849 -0.129928589 -0.669617712
vn -0.165773109 0.986163735 0.000558785745
vn 0 1 0
vn -0.0925515369 0.991717935 -0.0890492424
vn -0.197941795 0.948318779 -0.248013049
vn -0.258917272 0.849605203 -0.459491909
vn -0.163260177 0.818136692 -0.551360428
vn 0.0382588729 0.799032092 -0.60007
vn 0.677461147 0.274713278 -0.682333589
vn 0.716973782 -0.0414597616 -0.695866108
vn -0.326121598 0.717597187 -0.615385175
vn -0.234897241 0.670674741 -0.703575611
vn -0.0238312315 0.632608593 -0.774104953
vn 0.35686928 0.482013911 -0.80019182
vn -0.681516886 -0.731797874 -0.00256107817
vn 0 -1 0
vn 0 -1 0
vn -0.0108245118 -0.99988848 -0.0102840727
vn -0.0354697034 -0.998199105 -0.0483794324
vn -0.0321994089 -0.996453822 -0.0777375847
vn 0.221072242 -0.970844567 -0.0926702172
vn 0.946755111 -0.25568372 -0.195654333
vn -1 0 0
vn 0.872640669 -0.361993253 -0.327809572
vn -1 0 0
vn 0.764517248 -0.401626974 -0.504191637
vn 0.71140027 -0.432729214 -0.553764522
vn -1 0 0
vn 0.742139339 -0.288847983 -0.604810715
vn 0.700581014 -0.281577438 -0.655667901
vn 0.7385481 -0.214991495 -0.639003396
vn -0.163332656 0.986571014 0.000540158188
vn -0.0743696094 0.996254385 -0.0441170484
vn -0.248034671 0.951707423 -0.180919379
vn -0.40954724 0.824676394 -0.390102416
vn -0.380282253 0.773943901 -0.506355882
vn 0.600978792 0.204406023 -0.772685409
vn 0.672515154 0.0014280742 -0.740081906
vn 0.73309201 -0.0701955855 -0.676497281
vn -0.524259984 0.691159725 -0.497443229
vn -0.465860277 0.616921127 -0.634336233
vn -0.289449781 0.572033346 -0.767461121
vn -0.052716475 0.559272826 -0.827305734
vn 0.366856098 0.416704476 -0.831729531
vn 0.589883089 0.237515911 -0.771766901
vn 0.703855217 0.10142003 -0.703066051
vn -0.481791228 0.558122754 -0.675556242
vn -0.318606555 0.575175703 -0.753433943
vn -0.0715360343 0.575638473 -0.814569235
vn 0.23782818 0.542982876 -0.805361629
vn 0.45711866 0.436955661 -0.77466917
vn -0.230844587 0.643143713 -0.730121136
vn -0.0813879669 0.651709616 -0.754089236
vn 0.122840948 0.640151739 -0.758363962
vn -0.681516886 -0.731797874 -0.00256107817
vn 0 -1 0
vn 0 -1 0
vn -0.0483070314 -0.998343527 -0.0312506855
vn -0.0680286661 -0.995681822 -0.0631643683
vn -0.0530397743 -0.994778275 -0.0871951133
vn 0.129036278 -0.986426294 -0.101551764
vn 0.850649774 -0.48884511 -0.193456367
vn -1 0 0
vn 0.77251029 -0.53672415 -0.339344949
vn 0.714404523 -0.598895609 -0.361870348
vn -1 0 0
vn 0.736872971 -0.506642759 -0.447583914
vn 0.700892031 -0.538387835 -0.467855752
vn 0.746249616 -0.507600546 -0.430642664
vn -1 0 0
vn 0.720599473 -0.387285829 -0.575105369
vn 0.765677989 -0.349266171 -0.540139258
vn -0.169842571 0.985467494 -0.00271560182
vn -0.176631346 0.981687009 -0.0713579133
vn -0.459025502 0.858225524 -0.229661956
vn -0.524484634 0.776830852 -0.348496288
vn 0.804011583 -0.10427475 -0.585399151
vn -0.623773575 0.727115929 -0.286720991
vn -0.659553468 0.620224535 -0.424630284
vn -0.603410006 0.564951539 -0.562784195
vn 0.646702051 0.275818914 -0.711126089
vn 0.758156359 0.168413118 -0.629949152
vn -0.706002533 0.55802083 -0.436088532
vn -0.600699365 0.573211849 -0.55730468
vn -0.411223561 0.61428839 -0.673457563
vn 0.316291094 0.59415549 -0.739553332
vn 0.525535822 0.483890444 -0.699758649
vn 0.702113211 0.455684513 -0.547164083
vn -0.550069392 0.663797796 -0.506750464
vn -0.357228607 0.695501626 -0.623430192
vn -0.0886741057 0.766025066 -0.636665165
vn 0.214052007 0.721727073 -0.658249021
vn 0.50490135 0.662994981 -0.552731752
vn 0.643497288 0.59656471 -0.479605854
vn -0.681516886 -0.731797874 -0.00256107817
vn 0 -1 0
vn -0.0220814385 -0.999739408 -0.00579028204
vn -0.0758546367 -0.996778369 -0.0260567535
vn -0.0914216191 -0.994790077 -0.0451085567
vn -0.0677328184 -0.995948374 -0.0591520071
vn 0.0891518071 -0.993719697 -0.067624785
vn 0.771531701 -0.623697877 -0.125458509
vn -1 0 0
vn 0.751087248 -0.632607937 -0.188878387
vn 0.703558624 -0.672052503 -0.230977654
vn -1 0 0
vn 0.716914117 -0.643896997 -0.267265409
vn 0.76759845 -0.571469128 -0.290199101
vn -1 0 0
vn 0.871057212 -0.389425576 -0.299344331
vn 0.937633395 -0.286714286 -0.196566656
vn -0.215633467 0.976427078 -0.00960833952
vn -0.268673778 0.961500287 -0.0577203706
vn -0.536668003 0.832833707 -0.135556296
vn 0.914231122 -0.131430537 -0.383285105
vn 0.961449742 -0.135625362 -0.239207387
vn -0.697585821 0.688566506 -0.198116928
vn -0.775903165 0.580324173 -0.24738282
vn 0.909788787 0.160261706 -0.382884651
vn 0.959272802 0.159245402 -0.233316496
vn -0.774953604 0.562890351 -0.287404478
vn -0.724795818 0.61514771 -0.310264945
vn 0.845627904 0.432610452 -0.312668532
vn 0.932222068 0.307263732 -0.191183016
vn -0.629249513 0.702703118 -0.332044154
vn -0.393700808 0.849925756 -0.350179851
vn -0.0872504935 0.884500921 -0.458307236
vn 0.207417563 0.87675643 -0.433907986
vn 0.492837101 0.805004478 -0.330271631
vn 0.688850045 0.643105507 -0.334516168
vn -0.2972399 0.919439197 -0.257448941
vn -0.0881489739 0.945347428 -0.313923597
vn 0.208036199 0.934970737 -0.287316471
vn 0.375624239 0.900052667 -0.220933527
vn -0.474841654 -0.879980505 -0.0126402127
vn 0 -1 0.000260765897
vn -0.0261248089 -0.999658525 -0.000559850945
vn -0.0865730271 -0.996239781 -0.00336578791
vn -0.102653384 -0.994699717 -0.00589863863
vn -0.0749798045 -0.997155905 -0.00763070909
vn 0.0863936171 -0.996224761 -0.00850410108
vn 0.749606609 -0.661687553 -0.0161071364
vn -1 0 0.000279392028
vn 0.738567173 -0.673774242 -0.0233825985
vn 0.700221956 -0.713366985 -0.0282269251
vn -1 4.65655557e-06 0.000265423674
vn 0.726247907 -0.686686337 -0.0320280977
vn 0.785930574 -0.617329717 -0.0348893106
vn -1 4.65655557e-06 0.000358554797
vn 0.896451354 -0.441509902 -0.0380009301
vn 0.9514516 -0.305324703 -0.0389459394
vn -0.0748752579 0.99719131 -0.00175607158
vn -0.275973976 0.961138546 -0.00714229979
vn -0.569013059 0.822153568 -0.016960308
vn 0.989871204 -0.136364371 -0.0394935049
vn -0.751342595 0.659442067 -0.0249086879
vn -0.822293282 0.568261445 -0.0302105267
vn 0.986327052 0.159979165 -0.0395663418
vn -0.818611383 0.573297501 -0.0347170271
vn -0.769850969 0.637154162 -0.0369339325
vn 0.880167961 0.472985029 -0.0398687571
vn 0.946598649 0.320004314 -0.039348457
vn -0.677900493 0.734087944 -0.0395696573
vn -0.484029323 0.874173641 -0.0391932614
vn 0.548934639 0.834914207 -0.0398642644
vn 0.728113115 0.684301198 -0.0397884175
vn -0.337938935 0.940342128 -0.0394200012
vn -0.0881533548 0.995320678 -0.0395684093
vn 0.208269522 0.977264702 -0.0397165157
vn 0.396919936 0.917006493 -0.039416302
vn 0 0 1
vn 0 0 1
vn -0.0939056873 -0.088338621 0.991654158
vn -0.165983528 -0.245473698 0.955087483
vn -0.178174004 -0.475863457 0.861282766
vn -0.127245143 -0.606379211 0.78492862
vn 0.0414369963 -0.644855618 0.763180375
vn 0.566945076 -0.628194213 0.532865167
vn 0 0 1
vn -0.0441164374 -0.0289095305 0.998607934
vn -0.178016633 -0.143402904 0.973522305
vn -0.296778888 -0.311431706 0.902736127
vn -0.325424403 -0.482383639 0.813268125
vn -0.198759213 -0.579342306 0.790479124
vn -0.00803067628 -0.630304575 0.776306391
vn 0.513421834 -0.688931525 0.511636078
vn 0.608657181 -0.71616745 0.341526717
vn -0.0415524505 -0.0176563524 0.998980284
vn -0.137240276 -0.063887015 0.988475382
vn -0.331225991 -0.189746693 0.924275637
vn -0.46797049 -0.353578478 0.809929609
vn -0.428679556 -0.456010878 0.779928088
vn 0.671950102 -0.680980146 0.291116953
vn 0.752802551 -0.601107061 0.268251091
vn -0.0987381339 -0.0248872861 0.994802237
vn -0.22152108 -0.061231032 0.973231316
vn -0.467655063 -0.159002244 0.869492352
vn -0.577236474 -0.230176151 0.78346473
vn 0.878367126 -0.407698065 0.249506339
vn 0.94317019 -0.300974995 0.140868738
vn -0.134684488 0.411793143 0.901269317
vn -0.270239621 0.46093598 0.845286131
vn -0.601238906 0.417203844 0.681507647
vn -0.696164012 0.1611505 0.699561417
vn 0.92839098 -0.135991141 0.345827311
vn 0.970581412 -0.136142209 0.198587298
vn -0.758330762 0.543931901 0.359266639
vn -0.806523383 0.44463098 0.3896451
vn 0.927106917 0.15954794 0.339141846
vn 0.968425095 0.15961577 0.191509113
vn -0.805153012 0.519364774 0.286336869
vn -0.756681144 0.598005235 0.264241099
vn 0.865710557 0.437512815 0.243162036
vn 0.939280748 0.317067802 0.131223589
vn -0.652916491 0.712218344 0.257769406
vn -0.444089174 0.858304203 0.25709641
vn 0.307266653 0.879171669 0.364203781
vn 0.496976644 0.826108098 0.265630573
vn 0.705622017 0.660756767 0.255925864
vn -0.294551581 0.92076242 0.255804598
vn -0.0883701742 0.962385476 0.256914318
vn 0.210515186 0.941096067 0.264615744
vn 0.3846623 0.907481074 0.168857947
vn -0.353959382 -0.546806455 0.758759201
vn -0.244468585 -0.618660092 0.746655762
vn -0.0375366956 -0.670364201 0.741082191
vn 0.329247624 -0.700073838 0.633634448
vn 0.494177669 -0.697871923 0.518423796
vn -0.526169658 -0.386886179 0.757274449
vn -0.457258254 -0.491013378 0.741499007
vn -0.290773451 -0.589363933 0.753724754
vn -0.0577159151 -0.643536508 0.763236344
vn 0.263671428 -0.657932699 0.70540905
vn 0.531325698 -0.62607801 0.570718229
vn 0.694730043 -0.560596883 0.450645417
vn -0.606245279 -0.279823095 0.744423091
vn -0.564368963 -0.330528051 0.75646472
vn 0.597076118 -0.474918514 0.646492481
vn 0.729676723 -0.405423045 0.550639689
vn -0.701940477 0.0267710406 0.711732268
vn -0.650017619 -0.0472022109 0.75845176
vn 0.818948984 -0.137534559 0.557141602
vn -0.762557328 0.290187389 0.578184724
vn -0.693895221 0.22494486 0.684038877
vn 0.814656973 0.161113098 0.557114482
vn -0.76566869 0.431864977 0.47670123
vn -0.669624746 0.479558438 0.567121208
vn -0.487039953 0.564513445 0.666420817
vn 0.575902045 0.518811226 0.631800413
vn 0.718213737 0.435757577 0.542479813
vn -0.58946842 0.654435098 0.473541617
vn -0.370427638 0.751583695 0.545807123
vn -0.0888239816 0.813126922 0.575269401
vn 0.211718336 0.815052271 0.539319098
vn 0.489922315 0.681896746 0.543132603
vn 0.662321091 0.615965307 0.426517785
vn -0.23760131 0.884764969 0.400919616
vn -0.0874785036 0.903249085 0.420105457
vn 0.111777738 0.900481403 0.420284271
vn -0.424308985 -0.461987555 0.778799951
vn -0.315438747 -0.517790973 0.795230091
vn -0.0684844106 -0.575038373 0.815254986
vn 0.232728332 -0.575640202 0.783885181
vn 0.406806052 -0.54745084 0.731304646
vn -0.486833662 -0.356676221 0.797355115
vn -0.341183007 -0.383969545 0.85799849
vn -0.0793063939 -0.401433498 0.912448168
vn 0.216558278 -0.410562932 0.885742962
vn 0.501774371 -0.401022434 0.76642257
vn 0.651611865 -0.29616636 0.698346198
vn -0.568025529 -0.0839826614 0.818714797
vn -0.365661293 -0.117556058 0.923294365
vn -0.108541645 -0.135366082 0.984832346
vn 0.201097593 -0.141640067 0.969277024
vn 0.507362068 -0.137328297 0.850720108
vn 0.676794112 -0.135537654 0.723587751
vn -0.591834247 0.18724446 0.784010053
vn -0.385652542 0.160642192 0.908551693
vn -0.110655323 0.159388363 0.980994821
vn 0.20105733 0.159325629 0.966535747
vn 0.50736022 0.160823062 0.846594036
vn 0.674288809 0.15858604 0.721238613
vn -0.568665206 0.374601007 0.732320964
vn -0.391726613 0.467866689 0.792244315
vn -0.0887403041 0.458603323 0.884199142
vn 0.209116861 0.458775252 0.863594472
vn 0.488830924 0.435170561 0.75608927
vn 0.647271156 0.314133346 0.694521606
vn -0.291611522 0.628521919 0.721056819
vn -0.0880675316 0.657600701 0.748201489
vn 0.206941113 0.644371569 0.736179769
vn 0.370781213 0.608230233 0.701838553
vn -0.0266021956 -0.0459763408 0.998588264
vn 0.0963515863 -0.0458284803 0.994291723
vn -0.0266027115 0.0596884377 0.997862518
vn 0.0962728262 0.0594626255 0.993577242
f 1//1 8//8 9//9 2//2
f 2//2 9//9 10//10 3//3
f 3//3 10//10 11//11 4//4
f 4//4 11//11 12//12 5//5
f 5//5 12//12 13//13 6//6
f 6//6 13//13 14//14 7//7
f 8//8 15//15 16//16 9//9
f 9//9 16//16 17//17 10//10
f 10//10 17//17 18//18 11//11
f 11//11 18//18 19//19 12//12
f 12//12 19//19 20//20 13//13
f 13//13 20//20 21//21 14//14
f 15//15 22//22 23//23 16//16
f 16//16 23//23 24//24 17//17
f 17//17 24//24 25//25 18//18
f 18//18 25//25 26//26 19//19
f 19//19 26//26 27//27 20//20
f 20//20 27//27 28//28 21//21
f 22//22 29//29 30//30 23//23
f 23//23 30//30 31//31 24//24
f 24//24 31//31 32//32 25//25
f 25//25 32//32 33//33 26//26
f 26//26 33//33 34//34 27//27
f 27//27 34//34 35//35 28//28
f 1//1 2//2 37//37 36//36
f 2//2 3//3 38//38 37//37
f 3//3 4//4 39//39 38//38
f 4//4 5//5 40//40 39//39
f 5//5 6//6 41//41 40//40
f 6//6 7//7 42//42 41//41
f 1//1 36//36 43//43 8//8
f 7//7 14//14 44//44 42//42
f 8//8 43//43 46//46 15//15
f 14//14 21//21 47//47 44//44
f 44//44 47//47 48//48 45//45
f 15//15 46//46 49//49 22//22
f 21//21 28//28 50//50 47//47
f 47//47 50//50 51//51 48//48
f 22//22 49//49 52//52 29//29
f 29//29 52//52 53//53 30//30
f 30//30 53//53 54//54 31//31
f 31//31 54//54 55//55 32//32
f 32//32 55//55 56//56 33//33
f 33//33 56//56 57//57 34//34
f 28//28 35//35 58//58 50//50
f 34//34 57//57 58//58 35//35
f 50//50 58//58 59//59 51//51
f 36//36 37//37 61//61 60//60
f 37//37 38//38 62//62 61//61
f 38//38 39//39 63//63 62//62
f 39//39 40//40 64//64 63//63
f 40//40 41//41 65//65 64//64
f 41//41 42//42 66//66 65//65
f 36//36 60//60 68//68 43//43
f 42//42 44//44 69//69 66//66
f 44//44 45//45 70//70 69//69
f 66//66 69//69 70//70 67//67
f 43//43 68//68 71//71 46//46
f 45//45 48//48 72//72 70//70
f 46//46 71//71 73//73 49//49
f 48//48 51//51 74//74 72//72
f 49//49 73//73 76//76 52//52
f 52//52 76//76 77//77 53//53
f 53//53 77//77 78//78 54//54
f 54//54 78//78 79//79 55//55
f 55//55 79//79 80//80 56//56
f 56//56 80//80 81//81 57//57
f 57//57 81//81 82//82 58//58
f 51//51 59//59 83//83 74//74
f 58//58 82//82 83//83 59//59
f 74//74 83//83 84//84 75//75
f 80//80 85//85 86//86 81//81
f 81//81 86//86 87//87 82//82
f 82//82 87//87 88//88 83//83
f 60//60 61//61 90//90 89//89
f 61//61 62//62 91//91 90//90
f 62//62 63//63 92//92 91//91
f 63//63 64//64 93//93 92//92
f 64//64 65//65 94//94 93//93
f 65//65 66//66 95//95 94//94
f 66//66 67//67 96//96 95//95
f 60//60 89//89 97//97 68//68
f 67//67 70//70 98//98 96//96
f 68//68 97//97 99//99 71//71
f 70//70 72//72 100//100 98//98
f 71//71 99//99 102//102 73//73
f 72//72 74//74 103//103 100//100
f 74//74 75//75 104//104 103//103
f 100//100 103//103 104//104 101//101
f 73//73 102//102 106//106 76//76
f 76//76 106//106 107//107 77//77
f 77//77 107//107 108//108 78//78
f 78//78 108//108 109//109 79//79
f 79//79 109//109 110//110 80//80
f 75//75 84//84 112//112 104//104
f 83//83 111//111 112//112 84//84
f 104//104 112//112 113//113 105//105
f 80//80 110//110 115//115 85//85
f 109//109 114//114 115//115 110//110
f 85//85 115//115 116//116 86//86
f 86//86 116//116 117//117 87//87
f 83//83 88//88 118//118 111//111
f 87//87 117//117 118//118 88//88
f 111//111 118//118 119//119 112//112
f 112//112 119//119 120//120 113//113
f 115//115 121//121 122//122 116//116
f 116//116 122//122 123//123 117//117
f 117//117 123//123 124//124 118//118
f 118//118 124//124 125//125 119//119
f 122//122 126//126 127//127 123//123
f 123//123 127//127 128//128 124//124
f 89//89 90//90 130//130 129//129
f 90//90 91//91 131//131 130//130
f 91//91 92//92 132//132 131//131
f 92//92 93//93 133//133 132//132
f 93//93 94//94 134//134 133//133
f 94//94 95//95 135//135 134//134
f 95//95 96//96 136//136 135//135
f 89//89 129//129 137//137 97//97
f 96//96 98//98 138//138 136//136
f 97//97 137//137 140//140 99//99
f 98//98 100//100 141//141 138//138
f 100//100 101//101 142//142 141//141
f 138//138 141//141 142//142 139//139
f 99//99 140//140 144//144 102//102
f 101//101 104//104 145//145 142//142
f 104//104 105//105 146//146 145//145
f 142//142 145//145 146//146 143//143
f 102//102 144//144 147//147 106//106
f 106//106 147//147 148//148 107//107
f 107//107 148//148 149//149 108//108
f 108//108 149//149 150//150 109//109
f 105//105 113//113 151//151 146//146
f 109//109 150//150 153//153 114//114
f 149//149 152//152 153//153 150//150
f 114//114 153//153 154//154 115//115
f 113//113 120//120 156//156 151//151
f 119//119 155//155 156//156 120//120
f 115//115 154//154 158//158 121//121
f 153//153 157//157 158//158 154//154
f 121//121 158//158 159//159 122//122
f 119//119 125//125 161//161 155//155
f 124//124 160//160 161//161 125//125
f 155//155 161//161 162//162 156//156
f 122//122 159//159 164//164 126//126
f 158//158 163//163 164//164 159//159
f 126//126 164//164 165//165 127//127
f 124//124 128//128 166//166 160//160
f 127//127 165//165 166//166 128//128
f 160//160 166//166 167//167 161//161
f 161//161 167//167 168//168 162//162
f 129//129 130//130 170//170 169//169
f 130//130 131//131 171//171 170//170
f 131//131 132//132 172//172 171//171
f 132//132 133//133 173//173 172//172
f 133//133 134//134 174//174 173//173
f 134//134 135//135 175//175 174//174
f 135//135 136//136 176//176 175//175
f 129//129 169//169 177//177 137//137
f 136//136 138//138 178//178 176//176
f 138//138 139//139 179//179 178//178
f 137//137 177//177 180//180 140//140
f 139//139 142//142 181//181 179//179
f 142//142 143//143 182//182 181//181
f 140//140 180//180 183//183 144//144
f 143//143 146//146 184//184 182//182
f 144//144 183//183 186//186 147//147
f 147//147 186//186 187//187 148//148
f 148//148 187//187 188//188 149//149
f 146//146 151//151 189//189 184//184
f 184//184 189//189 190//190 185//185
f 149//149 188//188 191//191 152//152
f 152//152 191//191 192//192 153//153
f 151//151 156//156 193//193 189//189
f 189//189 193//193 194//194 190//190
f 153//153 192//192 195//195 157//157
f 157//157 195//195 196//196 158//158
f 156//156 162//162 197//197 193//193
f 193//193 197//197 198//198 194//194
f 158//158 196//196 199//199 163//163
f 163//163 199//199 200//200 164//164
f 164//164 200//200 201//201 165//165
f 165//165 201//201 202//202 166//166
f 166//166 202//202 203//203 167//167
f 162//162 168//168 204//204 197//197
f 167//167 203//203 204//204 168//168
f 200//200 205//205 206//206 201//201
f 201//201 206//206 207//207 202//202
f 202//202 207//207 208//208 203//203
f 169//169 170//170 210//210 209//209
f 170//170 171//171 211//211 210//210
f 171//171 172//172 212//212 211//211
f 172//172 173//173 213//213 212//212
f 173//173 174//174 214//214 213//213
f 174//174 175//175 215//215 214//214
f 175//175 176//176 216//216 215//215
f 169//169 209//209 217//217 177//177
f 176//176 178//178 218//218 216//216
f 178//178 179//179 219//219 218//218
f 177//177 217//217 220//220 180//180
f 179//179 181//181 221//221 219//219
f 181//181 182//182 222//222 221//221
f 180//180 220//220 223//223 183//183
f 182//182 184//184 224//224 222//222
f 184//184 185//185 225//225 224//224
f 183//183 223//223 226//226 186//186
f 186//186 226//226 227//227 187//187
f 187//187 227//227 228//228 188//188
f 185//185 190//190 229//229 225//225
f 188//188 228//228 230//230 191//191
f 191//191 230//230 231//231 192//192
f 190//190 194//194 232//232 229//229
f 192//192 231//231 233//233 195//195
f 195//195 233//233 234//234 196//196
f 194//194 198//198 236//236 232//232
f 197//197 235//235 236//236 198//198
f 196//196 234//234 237//237 199//199
f 199//199 237//237 238//238 200//200
f 197//197 204//204 240//240 235//235
f 203//203 239//239 240//240 204//204
f 200//200 238//238 241//241 205//205
f 205//205 241//241 242//242 206//206
f 206//206 242//242 243//243 207//207
f 203//203 208//208 244//244 239//239
f 207//207 243//243 244//244 208//208
f 209//209 210//210 246//246 245//245
f 210//210 211//211 247//247 246//246
f 211//211 212//212 248//248 247//247
f 212//212 213//213 249//249 248//248
f 213//213 214//214 250//250 249//249
f 214//214 215//215 251//251 250//250
f 215//215 216//216 252//252 251//251
f 209//209 245//245 253//253 217//217
f 245//245 246//246 254//254 253//253
f 246//246 247//247 255//255 254//254
f 247//247 248//248 256//256 255//255
f 248//248 249//249 257//257 256//256
f 249//249 250//250 258//258 257//257
f 250//250 251//251 259//259 258//258
f 216//216 218//218 260//260 252//252
f 251//251 252//252 260//260 259//259
f 218//218 219//219 261//261 260//260
f 217//217 253//253 262//262 220//220
f 253//253 254//254 263//263 262//262
f 254//254 255//255 264//264 263//263
f 255//255 256//256 265//265 264//264
f 256//256 257//257 266//266 265//265
f 219//219 221//221 267//267 261//261
f 221//221 222//222 268//268 267//267
f 220//220 262//262 269//269 223//223
f 262//262 263//263 270//270 269//269
f 263//263 264//264 271//271 270//270
f 264//264 265//265 272//272 271//271
f 222//222 224//224 273//273 268//268
f 224//224 225//225 274//274 273//273
f 223//223 269//269 275//275 226//226
f 226//226 275//275 276//276 227//227
f 269//269 270//270 276//276 275//275
f 227//227 276//276 277//277 228//228
f 270//270 271//271 277//277 276//276
f 271//271 272//272 278//278 277//277
f 225//225 229//229 280//280 274//274
f 273//273 274//274 280//280 279//279
f 228//228 277//277 281//281 230//230
f 230//230 281//281 282//282 231//231
f 277//277 278//278 282//282 281//281
f 229//229 232//232 284//284 280//280
f 279//279 280//280 284//284 283//283
f 231//231 282//282 285//285 233//233
f 233//233 285//285 286//286 234//234
f 232//232 236//236 288//288 284//284
f 235//235 287//287 288//288 236//236
f 283//283 284//284 288//288 287//287
f 234//234 286//286 289//289 237//237
f 237//237 289//289 290//290 238//238
f 235//235 240//240 293//293 287//287
f 239//239 292//292 293//293 240//240
f 238//238 290//290 294//294 241//241
f 241//241 294//294 295//295 242//242
f 242//242 295//295 296//296 243//243
f 239//239 244//244 297//297 292//292
f 243//243 296//296 297//297 244//244
f 291//291 292//292 297//297 296//296
f 257//257 258//258 299//299 298//298
f 258//258 259//259 300//300 299//299
f 259//259 260//260 301//301 300//300
f 260//260 261//261 302//302 301//301
f 257//257 298//298 304//304 266//266
f 265//265 266//266 304//304 303//303
f 298//298 299//299 305//305 304//304
f 299//299 300//300 306//306 305//305
f 300//300 301//301 307//307 306//306
f 261//261 267//267 308//308 302//302
f 301//301 302//302 308//308 307//307
f 267//267 268//268 309//309 308//308
f 265//265 303//303 310//310 272//272
f 303//303 304//304 311//311 310//310
f 268//268 273//273 313//313 309//309
f 308//308 309//309 313//313 312//312
f 272//272 310//310 314//314 278//278
f 310//310 311//311 315//315 314//314
f 273//273 279//279 316//316 313//313
f 278//278 314//314 317//317 282//282
f 314//314 315//315 318//318 317//317
f 279//279 283//283 319//319 316//316
f 282//282 317//317 320//320 285//285
f 285//285 320//320 321//321 286//286
f 317//317 318//318 321//321 320//320
f 283//283 287//287 324//324 319//319
f 286//286 321//321 325//325 289//289
f 289//289 325//325 326//326 290//290
f 321//321 322//322 326//326 325//325
f 291//291 328//328 329//329 292//292
f 287//287 293//293 330//330 324//324
f 292//292 329//329 330//330 293//293
f 323//323 324//324 330//330 329//329
f 290//290 326//326 331//331 294//294
f 294//294 331//331 332//332 295//295
f 326//326 327//327 332//332 331//331
f 291//291 296//296 333//333 328//328
f 295//295 332//332 333//333 296//296
f 327//327 328//328 333//333 332//332
f 304//304 305//305 335//335 334//334
f 305//305 306//306 336//336 335//335
f 306//306 307//307 337//337 336//336
f 307//307 308//308 338//338 337//337
f 304//304 334//334 339//339 311//311
f 334//334 335//335 340//340 339//339
f 335//335 336//336 341//341 340//340
f 336//336 337//337 342//342 341//341
f 308//308 312//312 343//343 338//338
f 337//337 338//338 343//343 342//342
f 312//312 313//313 344//344 343//343
f 311//311 339//339 345//345 315//315
f 339//339 340//340 346//346 345//345
f 340//340 341//341 347//347 346//346
f 341//341 342//342 348//348 347//347
f 342//342 343//343 349//349 348//348
f 313//313 316//316 350//350 344//344
f 343//343 344//344 350//350 349//349
f 315//315 345//345 351//351 318//318
f 345//345 346//346 352//352 351//351
f 346//346 347//347 353//353 352//352
f 348//348 349//349 355//355 354//354
f 316//316 319//319 356//356 350//350
f 349//349 350//350 356//356 355//355
f 318//318 351//351 357//357 321//321
f 321//321 357//357 358//358 322//322
f 351//351 352//352 358//358 357//357
f 352//352 353//353 359//359 358//358
f 353//353 354//354 360//360 359//359
f 354//354 355//355 361//361 360//360
f 319//319 324//324 362//362 356//356
f 323//323 361//361 362//362 324//324
f 355//355 356//356 362//362 361//361
f 322//322 358//358 363//363 326//326
f 326//326 363//363 364//364 327//327
f 358//358 359//359 364//364 363//363
f 327//327 364//364 365//365 328//328
f 359//359 360//360 365//365 364//364
f 323//323 329//329 366//366 361//361
f 328//328 365//365 366//366 329//329
f 360//360 361//361 366//366 365//365
f 347//347 348//348 368//368 367//367
f 347//347 367//367 369//369 353//353
f 348//348 354//354 370//370 368//368
f 353//353 369//369 370//370 354//354
f 367//367 368//368 370//370 369//369
