# claycore OBJ export (vertex-color extension: v x y z r g b)
mtllib 44_voxel_faces.mtl
usemtl clay_default
o claycore
v 0.210000008 -0.140000001 -0.280000001 0.690196097 0.470588237 0.290196091
v 0.210000008 -0.0700000003 -0.280000001 0.690196097 0.470588237 0.290196091
v 0.210000008 -0.0700000003 -0.210000008 0.690196097 0.470588237 0.290196091
v 0.210000008 -0.140000001 -0.210000008 0.690196097 0.470588237 0.290196091
v 0.210000008 0 -0.280000001 0.690196097 0.470588237 0.290196091
v 0.210000008 0 -0.210000008 0.690196097 0.470588237 0.290196091
v 0.210000008 0.0700000003 -0.280000001 0.690196097 0.470588237 0.290196091
v 0.210000008 0.0700000003 -0.210000008 0.690196097 0.470588237 0.290196091
v 0.210000008 0.140000001 -0.280000001 0.690196097 0.470588237 0.290196091
v 0.210000008 0.140000001 -0.210000008 0.690196097 0.470588237 0.290196091
v 0.280000001 -0.140000001 -0.210000008 0.690196097 0.470588237 0.290196091
v 0.280000001 -0.0700000003 -0.210000008 0.690196097 0.470588237 0.290196091
v 0.280000001 -0.0700000003 -0.140000001 0.690196097 0.470588237 0.290196091
v 0.280000001 -0.140000001 -0.140000001 0.690196097 0.470588237 0.290196091
v 0.280000001 0 -0.210000008 0.690196097 0.470588237 0.290196091
v 0.280000001 0 -0.140000001 0.690196097 0.470588237 0.290196091
v 0.280000001 0.0700000003 -0.210000008 0.690196097 0.470588237 0.290196091
v 0.280000001 0.0700000003 -0.140000001 0.690196097 0.470588237 0.290196091
v 0.280000001 0.140000001 -0.210000008 0.690196097 0.470588237 0.290196091
v 0.280000001 0.140000001 -0.140000001 0.690196097 0.470588237 0.290196091
v 0.280000001 -0.0700000003 -0.0700000003 0.690196097 0.470588237 0.290196091
v 0.280000001 -0.140000001 -0.0700000003 0.690196097 0.470588237 0.290196091
v 0.280000001 0 -0.0700000003 0.690196097 0.470588237 0.290196091
v 0.280000001 0 -0.140000001 0.704684913 0.483917981 0.297730297
v 0.280000001 0.0700000003 -0.140000001 0.704684913 0.483917981 0.297730297
v 0.280000001 0.0700000003 -0.0700000003 0.704684913 0.483917981 0.297730297
v 0.280000001 0 -0.0700000003 0.704684913 0.483917981 0.297730297
v 0.280000001 0.140000001 -0.140000001 0.704684913 0.483917981 0.297730297
v 0.280000001 0.140000001 -0.0700000003 0.704684913 0.483917981 0.297730297
v 0.280000001 0.140000001 -0.140000001 0.726953566 0.504405141 0.309309989
v 0.280000001 0.210000008 -0.140000001 0.726953566 0.504405141 0.309309989
v 0.280000001 0.210000008 -0.0700000003 0.726953566 0.504405141 0.309309989
v 0.280000001 0.140000001 -0.0700000003 0.726953566 0.504405141 0.309309989
v 0.280000001 -0.0700000003 0 0.690196097 0.470588237 0.290196091
v 0.280000001 -0.140000001 0 0.690196097 0.470588237 0.290196091
v 0.280000001 -0.0700000003 -0.0700000003 0.704684913 0.483917981 0.297730297
v 0.280000001 0 0 0.704684913 0.483917981 0.297730297
v 0.280000001 -0.0700000003 0 0.704684913 0.483917981 0.297730297
v 0.280000001 -0.140000001 0 0.704684913 0.483917981 0.297730297
v 0.280000001 -0.0700000003 0.0700000003 0.704684913 0.483917981 0.297730297
v 0.280000001 -0.140000001 0.0700000003 0.704684913 0.483917981 0.297730297
v 0.280000001 -0.0700000003 0.140000001 0.704684913 0.483917981 0.297730297
v 0.280000001 -0.140000001 0.140000001 0.704684913 0.483917981 0.297730297
v 0.280000001 -0.140000001 0.140000001 0.71542871 0.493802249 0.30331707
v 0.280000001 -0.0700000003 0.140000001 0.71542871 0.493802249 0.30331707
v 0.280000001 -0.0700000003 0.210000008 0.71542871 0.493802249 0.30331707
v 0.280000001 -0.140000001 0.210000008 0.71542871 0.493802249 0.30331707
v 0.280000001 0.420000017 0.140000001 0.779974163 0.553184032 0.336880684
v 0.280000001 0.49000001 0.140000001 0.779974163 0.553184032 0.336880684
v 0.280000001 0.49000001 0.210000008 0.779974163 0.553184032 0.336880684
v 0.280000001 0.420000017 0.210000008 0.779974163 0.553184032 0.336880684
v 0.280000001 -0.0700000003 0.280000001 0.71542871 0.493802249 0.30331707
v 0.280000001 -0.140000001 0.280000001 0.71542871 0.493802249 0.30331707
v 0.280000001 0.49000001 0.280000001 0.779974163 0.553184032 0.336880684
v 0.280000001 0.420000017 0.280000001 0.779974163 0.553184032 0.336880684
v 0.280000001 0.0700000003 0.420000017 0.779974163 0.553184032 0.336880684
v 0.280000001 0.140000001 0.420000017 0.779974163 0.553184032 0.336880684
v 0.280000001 0.140000001 0.49000001 0.779974163 0.553184032 0.336880684
v 0.280000001 0.0700000003 0.49000001 0.779974163 0.553184032 0.336880684
v 0.349999994 0 -0.0700000003 0.744053364 0.520136952 0.31820187
v 0.349999994 0.0700000003 -0.0700000003 0.744053364 0.520136952 0.31820187
v 0.349999994 0.0700000003 0 0.744053364 0.520136952 0.31820187
v 0.349999994 0 0 0.744053364 0.520136952 0.31820187
v 0.349999994 0.0700000003 -0.0700000003 0.755117714 0.530316114 0.323955327
v 0.349999994 0.140000001 -0.0700000003 0.755117714 0.530316114 0.323955327
v 0.349999994 0.140000001 0 0.755117714 0.530316114 0.323955327
v 0.349999994 0.0700000003 0 0.755117714 0.530316114 0.323955327
v 0.349999994 0.210000008 -0.0700000003 0.755117714 0.530316114 0.323955327
v 0.349999994 0.210000008 0 0.755117714 0.530316114 0.323955327
v 0.349999994 0.210000008 -0.0700000003 0.768579781 0.542701244 0.330955595
v 0.349999994 0.280000001 -0.0700000003 0.768579781 0.542701244 0.330955595
v 0.349999994 0.280000001 0 0.768579781 0.542701244 0.330955595
v 0.349999994 0.210000008 0 0.768579781 0.542701244 0.330955595
v 0.349999994 -0.0700000003 0 0.744053364 0.520136952 0.31820187
v 0.349999994 0 0.0700000003 0.744053364 0.520136952 0.31820187
v 0.349999994 -0.0700000003 0.0700000003 0.744053364 0.520136952 0.31820187
v 0.349999994 0 0 0.755117714 0.530316114 0.323955327
v 0.349999994 0.0700000003 0.0700000003 0.755117714 0.530316114 0.323955327
v 0.349999994 0 0.0700000003 0.755117714 0.530316114 0.323955327
v 0.349999994 0.280000001 0 0.779974163 0.553184032 0.336880684
v 0.349999994 0.349999994 0 0.779974163 0.553184032 0.336880684
v 0.349999994 0.349999994 0.0700000003 0.779974163 0.553184032 0.336880684
v 0.349999994 0.280000001 0.0700000003 0.779974163 0.553184032 0.336880684
v 0.349999994 -0.0700000003 0.0700000003 0.755117714 0.530316114 0.323955327
v 0.349999994 0 0.140000001 0.755117714 0.530316114 0.323955327
v 0.349999994 -0.0700000003 0.140000001 0.755117714 0.530316114 0.323955327
v 0.349999994 0.420000017 0.0700000003 0.779974163 0.553184032 0.336880684
v 0.349999994 0.420000017 0.140000001 0.779974163 0.553184032 0.336880684
v 0.349999994 0.349999994 0.140000001 0.779974163 0.553184032 0.336880684
v 0.349999994 0 0.210000008 0.755117714 0.530316114 0.323955327
v 0.349999994 -0.0700000003 0.210000008 0.755117714 0.530316114 0.323955327
v 0.349999994 -0.0700000003 0.210000008 0.768579781 0.542701244 0.330955595
v 0.349999994 0 0.210000008 0.768579781 0.542701244 0.330955595
v 0.349999994 0 0.280000001 0.768579781 0.542701244 0.330955595
v 0.349999994 -0.0700000003 0.280000001 0.768579781 0.542701244 0.330955595
v 0.349999994 0 0.349999994 0.768579781 0.542701244 0.330955595
v 0.349999994 -0.0700000003 0.349999994 0.768579781 0.542701244 0.330955595
v 0.349999994 0 0.349999994 0.779974163 0.553184032 0.336880684
v 0.349999994 0.0700000003 0.349999994 0.779974163 0.553184032 0.336880684
v 0.349999994 0.0700000003 0.420000017 0.779974163 0.553184032 0.336880684
v 0.349999994 0 0.420000017 0.779974163 0.553184032 0.336880684
v 0.349999994 0.349999994 0.349999994 0.779974163 0.553184032 0.336880684
v 0.349999994 0.420000017 0.349999994 0.779974163 0.553184032 0.336880684
v 0.349999994 0.420000017 0.420000017 0.779974163 0.553184032 0.336880684
v 0.349999994 0.349999994 0.420000017 0.779974163 0.553184032 0.336880684
v 0.349999994 0.140000001 0.420000017 0.779974163 0.553184032 0.336880684
v 0.349999994 0.210000008 0.420000017 0.779974163 0.553184032 0.336880684
v 0.349999994 0.210000008 0.49000001 0.779974163 0.553184032 0.336880684
v 0.349999994 0.140000001 0.49000001 0.779974163 0.553184032 0.336880684
v 0.349999994 0.280000001 0.420000017 0.779974163 0.553184032 0.336880684
v 0.349999994 0.280000001 0.49000001 0.779974163 0.553184032 0.336880684
v 0.420000017 0.0700000003 0 0.779974163 0.553184032 0.336880684
v 0.420000017 0.140000001 0 0.779974163 0.553184032 0.336880684
v 0.420000017 0.140000001 0.0700000003 0.779974163 0.553184032 0.336880684
v 0.420000017 0.0700000003 0.0700000003 0.779974163 0.553184032 0.336880684
v 0.420000017 0.210000008 0 0.779974163 0.553184032 0.336880684
v 0.420000017 0.210000008 0.0700000003 0.779974163 0.553184032 0.336880684
v 0.420000017 0.280000001 0 0.779974163 0.553184032 0.336880684
v 0.420000017 0.280000001 0.0700000003 0.779974163 0.553184032 0.336880684
v 0.420000017 0 0.0700000003 0.779974163 0.553184032 0.336880684
v 0.420000017 0.0700000003 0.140000001 0.779974163 0.553184032 0.336880684
v 0.420000017 0 0.140000001 0.779974163 0.553184032 0.336880684
v 0.420000017 0.140000001 0.140000001 0.779974163 0.553184032 0.336880684
v 0.420000017 0.349999994 0.0700000003 0.779974163 0.553184032 0.336880684
v 0.420000017 0.349999994 0.140000001 0.779974163 0.553184032 0.336880684
v 0.420000017 0.280000001 0.140000001 0.779974163 0.553184032 0.336880684
v 0.420000017 0.0700000003 0.210000008 0.779974163 0.553184032 0.336880684
v 0.420000017 0 0.210000008 0.779974163 0.553184032 0.336880684
v 0.420000017 0.420000017 0.140000001 0.779974163 0.553184032 0.336880684
v 0.420000017 0.420000017 0.210000008 0.779974163 0.553184032 0.336880684
v 0.420000017 0.349999994 0.210000008 0.779974163 0.553184032 0.336880684
v 0.420000017 0.0700000003 0.280000001 0.779974163 0.553184032 0.336880684
v 0.420000017 0 0.280000001 0.779974163 0.553184032 0.336880684
v 0.420000017 0.420000017 0.280000001 0.779974163 0.553184032 0.336880684
v 0.420000017 0.349999994 0.280000001 0.779974163 0.553184032 0.336880684
v 0.420000017 0.0700000003 0.349999994 0.779974163 0.553184032 0.336880684
v 0.420000017 0 0.349999994 0.779974163 0.553184032 0.336880684
v 0.420000017 0.280000001 0.280000001 0.779974163 0.553184032 0.336880684
v 0.420000017 0.349999994 0.349999994 0.779974163 0.553184032 0.336880684
v 0.420000017 0.280000001 0.349999994 0.779974163 0.553184032 0.336880684
v 0.420000017 0.420000017 0.349999994 0.779974163 0.553184032 0.336880684
v 0.420000017 0.140000001 0.349999994 0.779974163 0.553184032 0.336880684
v 0.420000017 0.140000001 0.420000017 0.779974163 0.553184032 0.336880684
v 0.420000017 0.0700000003 0.420000017 0.779974163 0.553184032 0.336880684
v 0.420000017 0.210000008 0.349999994 0.779974163 0.553184032 0.336880684
v 0.420000017 0.210000008 0.420000017 0.779974163 0.553184032 0.336880684
v 0.420000017 0.280000001 0.420000017 0.779974163 0.553184032 0.336880684
v 0.420000017 0.349999994 0.420000017 0.779974163 0.553184032 0.336880684
v 0.49000001 0.140000001 0.0700000003 0.779974163 0.553184032 0.336880684
v 0.49000001 0.210000008 0.0700000003 0.779974163 0.553184032 0.336880684
v 0.49000001 0.210000008 0.140000001 0.779974163 0.553184032 0.336880684
v 0.49000001 0.140000001 0.140000001 0.779974163 0.553184032 0.336880684
v 0.49000001 0.280000001 0.0700000003 0.779974163 0.553184032 0.336880684
v 0.49000001 0.280000001 0.140000001 0.779974163 0.553184032 0.336880684
v 0.49000001 0.0700000003 0.140000001 0.779974163 0.553184032 0.336880684
v 0.49000001 0.140000001 0.210000008 0.779974163 0.553184032 0.336880684
v 0.49000001 0.0700000003 0.210000008 0.779974163 0.553184032 0.336880684
v 0.49000001 0.210000008 0.210000008 0.779974163 0.553184032 0.336880684
v 0.49000001 0.280000001 0.210000008 0.779974163 0.553184032 0.336880684
v 0.49000001 0.349999994 0.140000001 0.779974163 0.553184032 0.336880684
v 0.49000001 0.349999994 0.210000008 0.779974163 0.553184032 0.336880684
v 0.49000001 0.140000001 0.280000001 0.779974163 0.553184032 0.336880684
v 0.49000001 0.0700000003 0.280000001 0.779974163 0.553184032 0.336880684
v 0.49000001 0.210000008 0.280000001 0.779974163 0.553184032 0.336880684
v 0.49000001 0.280000001 0.280000001 0.779974163 0.553184032 0.336880684
v 0.49000001 0.349999994 0.280000001 0.779974163 0.553184032 0.336880684
v 0.49000001 0.140000001 0.349999994 0.779974163 0.553184032 0.336880684
v 0.49000001 0.0700000003 0.349999994 0.779974163 0.553184032 0.336880684
v 0.49000001 0.210000008 0.349999994 0.779974163 0.553184032 0.336880684
v 0.49000001 0.280000001 0.349999994 0.779974163 0.553184032 0.336880684
v -0.280000001 -0.140000001 -0.210000008 0.690196097 0.470588237 0.290196091
v -0.280000001 -0.0700000003 -0.210000008 0.690196097 0.470588237 0.290196091
v -0.280000001 -0.0700000003 -0.140000001 0.690196097 0.470588237 0.290196091
v -0.280000001 -0.140000001 -0.140000001 0.690196097 0.470588237 0.290196091
v -0.280000001 0 -0.210000008 0.690196097 0.470588237 0.290196091
v -0.280000001 0 -0.140000001 0.690196097 0.470588237 0.290196091
v -0.280000001 0.0700000003 -0.210000008 0.690196097 0.470588237 0.290196091
v -0.280000001 0.0700000003 -0.140000001 0.690196097 0.470588237 0.290196091
v -0.280000001 0.140000001 -0.210000008 0.690196097 0.470588237 0.290196091
v -0.280000001 0.140000001 -0.140000001 0.690196097 0.470588237 0.290196091
v -0.280000001 -0.0700000003 -0.0700000003 0.690196097 0.470588237 0.290196091
v -0.280000001 -0.140000001 -0.0700000003 0.690196097 0.470588237 0.290196091
v -0.280000001 0 -0.0700000003 0.690196097 0.470588237 0.290196091
v -0.280000001 0.0700000003 -0.0700000003 0.690196097 0.470588237 0.290196091
v -0.280000001 0.140000001 -0.0700000003 0.690196097 0.470588237 0.290196091
v -0.280000001 -0.0700000003 0 0.690196097 0.470588237 0.290196091
v -0.280000001 -0.140000001 0 0.690196097 0.470588237 0.290196091
v -0.280000001 0 0 0.690196097 0.470588237 0.290196091
v -0.280000001 0.0700000003 0 0.690196097 0.470588237 0.290196091
v -0.280000001 0.140000001 0 0.690196097 0.470588237 0.290196091
v -0.280000001 -0.0700000003 0.0700000003 0.690196097 0.470588237 0.290196091
v -0.280000001 -0.140000001 0.0700000003 0.690196097 0.470588237 0.290196091
v -0.280000001 0 0.0700000003 0.690196097 0.470588237 0.290196091
v -0.280000001 0.0700000003 0.0700000003 0.690196097 0.470588237 0.290196091
v -0.280000001 0.140000001 0.0700000003 0.690196097 0.470588237 0.290196091
v -0.280000001 -0.0700000003 0.140000001 0.690196097 0.470588237 0.290196091
v -0.280000001 -0.140000001 0.140000001 0.690196097 0.470588237 0.290196091
v -0.280000001 0 0.140000001 0.690196097 0.470588237 0.290196091
v -0.280000001 0.0700000003 0.140000001 0.690196097 0.470588237 0.290196091
v -0.280000001 0.140000001 0.140000001 0.690196097 0.470588237 0.290196091
v -0.280000001 -0.0700000003 0.210000008 0.690196097 0.470588237 0.290196091
v -0.280000001 -0.140000001 0.210000008 0.690196097 0.470588237 0.290196091
v -0.280000001 0 0.210000008 0.690196097 0.470588237 0.290196091
v -0.280000001 0.0700000003 0.210000008 0.690196097 0.470588237 0.290196091
v -0.280000001 0.140000001 0.210000008 0.690196097 0.470588237 0.290196091
v -0.210000008 -0.140000001 -0.280000001 0.690196097 0.470588237 0.290196091
v -0.210000008 -0.0700000003 -0.280000001 0.690196097 0.470588237 0.290196091
v -0.210000008 -0.0700000003 -0.210000008 0.690196097 0.470588237 0.290196091
v -0.210000008 -0.140000001 -0.210000008 0.690196097 0.470588237 0.290196091
v -0.210000008 0 -0.280000001 0.690196097 0.470588237 0.290196091
v -0.210000008 0 -0.210000008 0.690196097 0.470588237 0.290196091
v -0.210000008 0.0700000003 -0.280000001 0.690196097 0.470588237 0.290196091
v -0.210000008 0.0700000003 -0.210000008 0.690196097 0.470588237 0.290196091
v -0.210000008 0.140000001 -0.280000001 0.690196097 0.470588237 0.290196091
v -0.210000008 0.140000001 -0.210000008 0.690196097 0.470588237 0.290196091
v -0.210000008 -0.140000001 0.210000008 0.690196097 0.470588237 0.290196091
v -0.210000008 -0.0700000003 0.210000008 0.690196097 0.470588237 0.290196091
v -0.210000008 -0.0700000003 0.280000001 0.690196097 0.470588237 0.290196091
v -0.210000008 -0.140000001 0.280000001 0.690196097 0.470588237 0.290196091
v -0.210000008 0 0.210000008 0.690196097 0.470588237 0.290196091
v -0.210000008 0 0.280000001 0.690196097 0.470588237 0.290196091
v -0.210000008 0.0700000003 0.210000008 0.690196097 0.470588237 0.290196091
v -0.210000008 0.0700000003 0.280000001 0.690196097 0.470588237 0.290196091
v -0.210000008 0.140000001 0.210000008 0.690196097 0.470588237 0.290196091
v -0.210000008 0.140000001 0.280000001 0.690196097 0.470588237 0.290196091
v -0.140000001 0.140000001 0.0700000003 0.704684913 0.483917981 0.297730297
v -0.140000001 0.210000008 0.0700000003 0.704684913 0.483917981 0.297730297
v -0.140000001 0.210000008 0.140000001 0.704684913 0.483917981 0.297730297
v -0.140000001 0.140000001 0.140000001 0.704684913 0.483917981 0.297730297
v -0.140000001 0.140000001 0.140000001 0.71542871 0.493802249 0.30331707
v -0.140000001 0.210000008 0.140000001 0.71542871 0.493802249 0.30331707
v -0.140000001 0.210000008 0.210000008 0.71542871 0.493802249 0.30331707
v -0.140000001 0.140000001 0.210000008 0.71542871 0.493802249 0.30331707
v -0.140000001 0.210000008 0.280000001 0.71542871 0.493802249 0.30331707
v -0.140000001 0.140000001 0.280000001 0.71542871 0.493802249 0.30331707
v -0.0700000003 0.140000001 0 0.71542871 0.493802249 0.30331707
v -0.0700000003 0.210000008 0 0.71542871 0.493802249 0.30331707
v -0.0700000003 0.210000008 0.0700000003 0.71542871 0.493802249 0.30331707
v -0.0700000003 0.140000001 0.0700000003 0.71542871 0.493802249 0.30331707
v -0.0700000003 0.210000008 0.140000001 0.755117714 0.530316114 0.323955327
v -0.0700000003 0.280000001 0.140000001 0.755117714 0.530316114 0.323955327
v -0.0700000003 0.280000001 0.210000008 0.755117714 0.530316114 0.323955327
v -0.0700000003 0.210000008 0.210000008 0.755117714 0.530316114 0.323955327
v -0.0700000003 0.210000008 0.210000008 0.768579781 0.542701244 0.330955595
v -0.0700000003 0.280000001 0.210000008 0.768579781 0.542701244 0.330955595
v -0.0700000003 0.280000001 0.280000001 0.768579781 0.542701244 0.330955595
v -0.0700000003 0.210000008 0.280000001 0.768579781 0.542701244 0.330955595
v -0.0700000003 0.0700000003 0.280000001 0.744053364 0.520136952 0.31820187
v -0.0700000003 0.140000001 0.280000001 0.744053364 0.520136952 0.31820187
v -0.0700000003 0.140000001 0.349999994 0.744053364 0.520136952 0.31820187
v -0.0700000003 0.0700000003 0.349999994 0.744053364 0.520136952 0.31820187
v -0.0700000003 0.140000001 0.280000001 0.755117714 0.530316114 0.323955327
v -0.0700000003 0.210000008 0.280000001 0.755117714 0.530316114 0.323955327
v -0.0700000003 0.210000008 0.349999994 0.755117714 0.530316114 0.323955327
v -0.0700000003 0.140000001 0.349999994 0.755117714 0.530316114 0.323955327
v 0 0.140000001 -0.0700000003 0.71542871 0.493802249 0.30331707
v 0 0.210000008 -0.0700000003 0.71542871 0.493802249 0.30331707
v 0 0.210000008 0 0.71542871 0.493802249 0.30331707
v 0 0.140000001 0 0.71542871 0.493802249 0.30331707
v 0 0.210000008 0 0.755117714 0.530316114 0.323955327
v 0 0.280000001 0 0.755117714 0.530316114 0.323955327
v 0 0.280000001 0.0700000003 0.755117714 0.530316114 0.323955327
v 0 0.210000008 0.0700000003 0.755117714 0.530316114 0.323955327
v 0 0.210000008 0.0700000003 0.768579781 0.542701244 0.330955595
v 0 0.280000001 0.0700000003 0.768579781 0.542701244 0.330955595
v 0 0.280000001 0.140000001 0.768579781 0.542701244 0.330955595
v 0 0.210000008 0.140000001 0.768579781 0.542701244 0.330955595
v 0 0.280000001 0.0700000003 0.779974163 0.553184032 0.336880684
v 0 0.349999994 0.0700000003 0.779974163 0.553184032 0.336880684
v 0 0.349999994 0.140000001 0.779974163 0.553184032 0.336880684
v 0 0.280000001 0.140000001 0.779974163 0.553184032 0.336880684
v 0 0.349999994 0.210000008 0.779974163 0.553184032 0.336880684
v 0 0.280000001 0.210000008 0.779974163 0.553184032 0.336880684
v 0 0.349999994 0.280000001 0.779974163 0.553184032 0.336880684
v 0 0.280000001 0.280000001 0.779974163 0.553184032 0.336880684
v 0 0 0.280000001 0.755117714 0.530316114 0.323955327
v 0 0.0700000003 0.280000001 0.755117714 0.530316114 0.323955327
v 0 0.0700000003 0.349999994 0.755117714 0.530316114 0.323955327
v 0 0 0.349999994 0.755117714 0.530316114 0.323955327
v 0 0.210000008 0.280000001 0.779974163 0.553184032 0.336880684
v 0 0.280000001 0.349999994 0.779974163 0.553184032 0.336880684
v 0 0.210000008 0.349999994 0.779974163 0.553184032 0.336880684
v 0 0.349999994 0.349999994 0.779974163 0.553184032 0.336880684
v 0 0.140000001 0.349999994 0.779974163 0.553184032 0.336880684
v 0 0.210000008 0.420000017 0.779974163 0.553184032 0.336880684
v 0 0.140000001 0.420000017 0.779974163 0.553184032 0.336880684
v 0.0700000003 0.140000001 -0.140000001 0.71542871 0.493802249 0.30331707
v 0.0700000003 0.210000008 -0.140000001 0.71542871 0.493802249 0.30331707
v 0.0700000003 0.210000008 -0.0700000003 0.71542871 0.493802249 0.30331707
v 0.0700000003 0.140000001 -0.0700000003 0.71542871 0.493802249 0.30331707
v 0.0700000003 0.210000008 -0.0700000003 0.755117714 0.530316114 0.323955327
v 0.0700000003 0.280000001 -0.0700000003 0.755117714 0.530316114 0.323955327
v 0.0700000003 0.280000001 0 0.755117714 0.530316114 0.323955327
v 0.0700000003 0.210000008 0 0.755117714 0.530316114 0.323955327
v 0.0700000003 0.280000001 0 0.779974163 0.553184032 0.336880684
v 0.0700000003 0.349999994 0 0.779974163 0.553184032 0.336880684
v 0.0700000003 0.349999994 0.0700000003 0.779974163 0.553184032 0.336880684
v 0.0700000003 0.280000001 0.0700000003 0.779974163 0.553184032 0.336880684
v 0.0700000003 0.420000017 0.0700000003 0.779974163 0.553184032 0.336880684
v 0.0700000003 0.420000017 0.140000001 0.779974163 0.553184032 0.336880684
v 0.0700000003 0.349999994 0.140000001 0.779974163 0.553184032 0.336880684
v 0.0700000003 0.420000017 0.210000008 0.779974163 0.553184032 0.336880684
v 0.0700000003 0.349999994 0.210000008 0.779974163 0.553184032 0.336880684
v 0.0700000003 0.420000017 0.280000001 0.779974163 0.553184032 0.336880684
v 0.0700000003 0.349999994 0.280000001 0.779974163 0.553184032 0.336880684
v 0.0700000003 -0.0700000003 0.280000001 0.744053364 0.520136952 0.31820187
v 0.0700000003 0 0.280000001 0.744053364 0.520136952 0.31820187
v 0.0700000003 0 0.349999994 0.744053364 0.520136952 0.31820187
v 0.0700000003 -0.0700000003 0.349999994 0.744053364 0.520136952 0.31820187
v 0.0700000003 0.420000017 0.349999994 0.779974163 0.553184032 0.336880684
v 0.0700000003 0.349999994 0.349999994 0.779974163 0.553184032 0.336880684
v 0.0700000003 0 0.349999994 0.768579781 0.542701244 0.330955595
v 0.0700000003 0.0700000003 0.349999994 0.768579781 0.542701244 0.330955595
v 0.0700000003 0.0700000003 0.420000017 0.768579781 0.542701244 0.330955595
v 0.0700000003 0 0.420000017 0.768579781 0.542701244 0.330955595
v 0.0700000003 0.0700000003 0.349999994 0.779974163 0.553184032 0.336880684
v 0.0700000003 0.140000001 0.349999994 0.779974163 0.553184032 0.336880684
v 0.0700000003 0.140000001 0.420000017 0.779974163 0.553184032 0.336880684
v 0.0700000003 0.0700000003 0.420000017 0.779974163 0.553184032 0.336880684
v 0.0700000003 0.210000008 0.349999994 0.779974163 0.553184032 0.336880684
v 0.0700000003 0.280000001 0.349999994 0.779974163 0.553184032 0.336880684
v 0.0700000003 0.280000001 0.420000017 0.779974163 0.553184032 0.336880684
v 0.0700000003 0.210000008 0.420000017 0.779974163 0.553184032 0.336880684
v 0.0700000003 0.349999994 0.420000017 0.779974163 0.553184032 0.336880684
v 0.140000001 0.349999994 0.349999994 0.779974163 0.553184032 0.336880684
v 0.140000001 0.420000017 0.349999994 0.779974163 0.553184032 0.336880684
v 0.140000001 0.420000017 0.420000017 0.779974163 0.553184032 0.336880684
v 0.140000001 0.349999994 0.420000017 0.779974163 0.553184032 0.336880684
v 0.140000001 0.140000001 0.420000017 0.779974163 0.553184032 0.336880684
v 0.140000001 0.210000008 0.420000017 0.779974163 0.553184032 0.336880684
v 0.140000001 0.210000008 0.49000001 0.779974163 0.553184032 0.336880684
v 0.140000001 0.140000001 0.49000001 0.779974163 0.553184032 0.336880684
v 0.140000001 0.280000001 0.420000017 0.779974163 0.553184032 0.336880684
v 0.140000001 0.280000001 0.49000001 0.779974163 0.553184032 0.336880684
v 0.210000008 0.420000017 0.140000001 0.779974163 0.553184032 0.336880684
v 0.210000008 0.49000001 0.140000001 0.779974163 0.553184032 0.336880684
v 0.210000008 0.49000001 0.210000008 0.779974163 0.553184032 0.336880684
v 0.210000008 0.420000017 0.210000008 0.779974163 0.553184032 0.336880684
v 0.210000008 0.49000001 0.280000001 0.779974163 0.553184032 0.336880684
v 0.210000008 0.420000017 0.280000001 0.779974163 0.553184032 0.336880684
v 0.210000008 0.0700000003 0.420000017 0.779974163 0.553184032 0.336880684
v 0.210000008 0.140000001 0.420000017 0.779974163 0.553184032 0.336880684
v 0.210000008 0.140000001 0.49000001 0.779974163 0.553184032 0.336880684
v 0.210000008 0.0700000003 0.49000001 0.779974163 0.553184032 0.336880684
v -0.140000001 0.140000001 -0.280000001 0.690196097 0.470588237 0.290196091
v -0.140000001 0.140000001 -0.210000008 0.690196097 0.470588237 0.290196091
v -0.0700000003 0.140000001 -0.280000001 0.690196097 0.470588237 0.290196091
v -0.0700000003 0.140000001 -0.210000008 0.690196097 0.470588237 0.290196091
v 0 0.140000001 -0.280000001 0.690196097 0.470588237 0.290196091
v 0 0.140000001 -0.210000008 0.690196097 0.470588237 0.290196091
v 0.0700000003 0.140000001 -0.280000001 0.690196097 0.470588237 0.290196091
v 0.0700000003 0.140000001 -0.210000008 0.690196097 0.470588237 0.290196091
v 0.140000001 0.140000001 -0.280000001 0.690196097 0.470588237 0.290196091
v 0.140000001 0.140000001 -0.210000008 0.690196097 0.470588237 0.290196091
v -0.210000008 0.140000001 -0.140000001 0.690196097 0.470588237 0.290196091
v -0.140000001 0.140000001 -0.140000001 0.690196097 0.470588237 0.290196091
v -0.0700000003 0.140000001 -0.140000001 0.690196097 0.470588237 0.290196091
v 0 0.140000001 -0.140000001 0.690196097 0.470588237 0.290196091
v 0.0700000003 0.140000001 -0.140000001 0.690196097 0.470588237 0.290196091
v 0.140000001 0.140000001 -0.140000001 0.690196097 0.470588237 0.290196091
v 0.210000008 0.140000001 -0.140000001 0.690196097 0.470588237 0.290196091
v -0.210000008 0.140000001 -0.0700000003 0.690196097 0.470588237 0.290196091
v -0.140000001 0.140000001 -0.0700000003 0.690196097 0.470588237 0.290196091
v -0.0700000003 0.140000001 -0.0700000003 0.690196097 0.470588237 0.290196091
v 0 0.140000001 -0.0700000003 0.690196097 0.470588237 0.290196091
v 0.0700000003 0.140000001 -0.0700000003 0.690196097 0.470588237 0.290196091
v -0.210000008 0.140000001 0 0.690196097 0.470588237 0.290196091
v -0.140000001 0.140000001 0 0.690196097 0.470588237 0.290196091
v -0.0700000003 0.140000001 0 0.690196097 0.470588237 0.290196091
v 0 0.140000001 0 0.690196097 0.470588237 0.290196091
v -0.210000008 0.140000001 0.0700000003 0.690196097 0.470588237 0.290196091
v -0.140000001 0.140000001 0.0700000003 0.690196097 0.470588237 0.290196091
v -0.0700000003 0.140000001 0.0700000003 0.690196097 0.470588237 0.290196091
v -0.210000008 0.140000001 0.140000001 0.690196097 0.470588237 0.290196091
v -0.140000001 0.140000001 0.140000001 0.690196097 0.470588237 0.290196091
v -0.140000001 0.140000001 0.210000008 0.690196097 0.470588237 0.290196091
v -0.140000001 0.140000001 0.280000001 0.690196097 0.470588237 0.290196091
v 0.140000001 0.210000008 -0.140000001 0.71542871 0.493802249 0.30331707
v 0.140000001 0.210000008 -0.0700000003 0.71542871 0.493802249 0.30331707
v 0.210000008 0.210000008 -0.140000001 0.71542871 0.493802249 0.30331707
v 0.210000008 0.210000008 -0.0700000003 0.71542871 0.493802249 0.30331707
v 0.210000008 0.210000008 -0.140000001 0.726953566 0.504405141 0.309309989
v 0.210000008 0.210000008 -0.0700000003 0.726953566 0.504405141 0.309309989
v 0.0700000003 0.210000008 0 0.71542871 0.493802249 0.30331707
v 0 0.210000008 0.0700000003 0.71542871 0.493802249 0.30331707
v -0.0700000003 0.210000008 0.0700000003 0.704684913 0.483917981 0.297730297
v -0.0700000003 0.210000008 0.140000001 0.704684913 0.483917981 0.297730297
v -0.0700000003 0.210000008 0.0700000003 0.726953566 0.504405141 0.309309989
v 0 0.210000008 0.0700000003 0.726953566 0.504405141 0.309309989
v 0 0.210000008 0.140000001 0.726953566 0.504405141 0.309309989
v -0.0700000003 0.210000008 0.140000001 0.726953566 0.504405141 0.309309989
v -0.0700000003 0.210000008 0.140000001 0.71542871 0.493802249 0.30331707
v -0.0700000003 0.210000008 0.210000008 0.71542871 0.493802249 0.30331707
v -0.0700000003 0.210000008 0.280000001 0.71542871 0.493802249 0.30331707
v 0 0.210000008 0.280000001 0.755117714 0.530316114 0.323955327
v 0 0.210000008 0.349999994 0.755117714 0.530316114 0.323955327
v 0.140000001 0.280000001 -0.0700000003 0.755117714 0.530316114 0.323955327
v 0.140000001 0.280000001 0 0.755117714 0.530316114 0.323955327
v 0.140000001 0.280000001 -0.0700000003 0.768579781 0.542701244 0.330955595
v 0.210000008 0.280000001 -0.0700000003 0.768579781 0.542701244 0.330955595
v 0.210000008 0.280000001 0 0.768579781 0.542701244 0.330955595
v 0.140000001 0.280000001 0 0.768579781 0.542701244 0.330955595
v 0.280000001 0.280000001 -0.0700000003 0.768579781 0.542701244 0.330955595
v 0.280000001 0.280000001 0 0.768579781 0.542701244 0.330955595
v 0.0700000003 0.280000001 0.0700000003 0.755117714 0.530316114 0.323955327
v 0 0.280000001 0.140000001 0.755117714 0.530316114 0.323955327
v 0 0.280000001 0.210000008 0.755117714 0.530316114 0.323955327
v 0 0.280000001 0.210000008 0.768579781 0.542701244 0.330955595
v 0 0.280000001 0.280000001 0.768579781 0.542701244 0.330955595
v 0.210000008 0.280000001 0.420000017 0.779974163 0.553184032 0.336880684
v 0.210000008 0.280000001 0.49000001 0.779974163 0.553184032 0.336880684
v 0.280000001 0.280000001 0.420000017 0.779974163 0.553184032 0.336880684
v 0.280000001 0.280000001 0.49000001 0.779974163 0.553184032 0.336880684
v 0.140000001 0.349999994 0 0.779974163 0.553184032 0.336880684
v 0.140000001 0.349999994 0.0700000003 0.779974163 0.553184032 0.336880684
v 0.210000008 0.349999994 0 0.779974163 0.553184032 0.336880684
v 0.210000008 0.349999994 0.0700000003 0.779974163 0.553184032 0.336880684
v 0.280000001 0.349999994 0 0.779974163 0.553184032 0.336880684
v 0.280000001 0.349999994 0.0700000003 0.779974163 0.553184032 0.336880684
v 0.140000001 0.420000017 0.0700000003 0.779974163 0.553184032 0.336880684
v 0.140000001 0.420000017 0.140000001 0.779974163 0.553184032 0.336880684
v 0.210000008 0.420000017 0.0700000003 0.779974163 0.553184032 0.336880684
v 0.280000001 0.420000017 0.0700000003 0.779974163 0.553184032 0.336880684
v 0.140000001 0.420000017 0.210000008 0.779974163 0.553184032 0.336880684
v 0.349999994 0.420000017 0.210000008 0.779974163 0.553184032 0.336880684
v 0.140000001 0.420000017 0.280000001 0.779974163 0.553184032 0.336880684
v 0.349999994 0.420000017 0.280000001 0.779974163 0.553184032 0.336880684
v 0.210000008 0.420000017 0.349999994 0.779974163 0.553184032 0.336880684
v 0.280000001 0.420000017 0.349999994 0.779974163 0.553184032 0.336880684
v 0.210000008 0.420000017 0.420000017 0.779974163 0.553184032 0.336880684
v 0.280000001 0.420000017 0.420000017 0.779974163 0.553184032 0.336880684
v -0.140000001 -0.140000001 -0.280000001 0.690196097 0.470588237 0.290196091
v -0.140000001 -0.140000001 -0.210000008 0.690196097 0.470588237 0.290196091
v -0.0700000003 -0.140000001 -0.280000001 0.690196097 0.470588237 0.290196091
v -0.0700000003 -0.140000001 -0.210000008 0.690196097 0.470588237 0.290196091
v 0 -0.140000001 -0.280000001 0.690196097 0.470588237 0.290196091
v 0 -0.140000001 -0.210000008 0.690196097 0.470588237 0.290196091
v 0.0700000003 -0.140000001 -0.280000001 0.690196097 0.470588237 0.290196091
v 0.0700000003 -0.140000001 -0.210000008 0.690196097 0.470588237 0.290196091
v 0.140000001 -0.140000001 -0.280000001 0.690196097 0.470588237 0.290196091
v 0.140000001 -0.140000001 -0.210000008 0.690196097 0.470588237 0.290196091
v -0.210000008 -0.140000001 -0.140000001 0.690196097 0.470588237 0.290196091
v -0.140000001 -0.140000001 -0.140000001 0.690196097 0.470588237 0.290196091
v -0.0700000003 -0.140000001 -0.140000001 0.690196097 0.470588237 0.290196091
v 0 -0.140000001 -0.140000001 0.690196097 0.470588237 0.290196091
v 0.0700000003 -0.140000001 -0.140000001 0.690196097 0.470588237 0.290196091
v 0.140000001 -0.140000001 -0.140000001 0.690196097 0.470588237 0.290196091
v 0.210000008 -0.140000001 -0.140000001 0.690196097 0.470588237 0.290196091
v -0.210000008 -0.140000001 -0.0700000003 0.690196097 0.470588237 0.290196091
v -0.140000001 -0.140000001 -0.0700000003 0.690196097 0.470588237 0.290196091
v -0.0700000003 -0.140000001 -0.0700000003 0.690196097 0.470588237 0.290196091
v 0 -0.140000001 -0.0700000003 0.690196097 0.470588237 0.290196091
v 0.0700000003 -0.140000001 -0.0700000003 0.690196097 0.470588237 0.290196091
v 0.140000001 -0.140000001 -0.0700000003 0.690196097 0.470588237 0.290196091
v 0.210000008 -0.140000001 -0.0700000003 0.690196097 0.470588237 0.290196091
v -0.210000008 -0.140000001 0 0.690196097 0.470588237 0.290196091
v -0.140000001 -0.140000001 0 0.690196097 0.470588237 0.290196091
v -0.0700000003 -0.140000001 0 0.690196097 0.470588237 0.290196091
v 0 -0.140000001 0 0.690196097 0.470588237 0.290196091
v 0.0700000003 -0.140000001 0 0.690196097 0.470588237 0.290196091
v 0.140000001 -0.140000001 0 0.690196097 0.470588237 0.290196091
v 0.210000008 -0.140000001 0 0.690196097 0.470588237 0.290196091
v -0.210000008 -0.140000001 0.0700000003 0.690196097 0.470588237 0.290196091
v -0.140000001 -0.140000001 0.0700000003 0.690196097 0.470588237 0.290196091
v -0.0700000003 -0.140000001 0.0700000003 0.690196097 0.470588237 0.290196091
v 0 -0.140000001 0.0700000003 0.690196097 0.470588237 0.290196091
v 0.0700000003 -0.140000001 0.0700000003 0.690196097 0.470588237 0.290196091
v 0.140000001 -0.140000001 0.0700000003 0.690196097 0.470588237 0.290196091
v 0.210000008 -0.140000001 0.0700000003 0.690196097 0.470588237 0.290196091
v 0.210000008 -0.140000001 0 0.704684913 0.483917981 0.297730297
v 0.210000008 -0.140000001 0.0700000003 0.704684913 0.483917981 0.297730297
v -0.210000008 -0.140000001 0.140000001 0.690196097 0.470588237 0.290196091
v -0.140000001 -0.140000001 0.140000001 0.690196097 0.470588237 0.290196091
v -0.0700000003 -0.140000001 0.140000001 0.690196097 0.470588237 0.290196091
v 0 -0.140000001 0.140000001 0.690196097 0.470588237 0.290196091
v 0.0700000003 -0.140000001 0.140000001 0.690196097 0.470588237 0.290196091
v 0.140000001 -0.140000001 0.140000001 0.690196097 0.470588237 0.290196091
v 0.140000001 -0.140000001 0.0700000003 0.704684913 0.483917981 0.297730297
v 0.210000008 -0.140000001 0.140000001 0.704684913 0.483917981 0.297730297
v 0.140000001 -0.140000001 0.140000001 0.704684913 0.483917981 0.297730297
v -0.140000001 -0.140000001 0.210000008 0.690196097 0.470588237 0.290196091
v -0.0700000003 -0.140000001 0.210000008 0.690196097 0.470588237 0.290196091
v 0 -0.140000001 0.210000008 0.690196097 0.470588237 0.290196091
v 0.0700000003 -0.140000001 0.210000008 0.690196097 0.470588237 0.290196091
v 0.0700000003 -0.140000001 0.140000001 0.704684913 0.483917981 0.297730297
v 0.140000001 -0.140000001 0.210000008 0.704684913 0.483917981 0.297730297
v 0.0700000003 -0.140000001 0.210000008 0.704684913 0.483917981 0.297730297
v 0.210000008 -0.140000001 0.210000008 0.704684913 0.483917981 0.297730297
v 0.210000008 -0.140000001 0.140000001 0.71542871 0.493802249 0.30331707
v 0.210000008 -0.140000001 0.210000008 0.71542871 0.493802249 0.30331707
v -0.140000001 -0.140000001 0.280000001 0.690196097 0.470588237 0.290196091
v -0.0700000003 -0.140000001 0.280000001 0.690196097 0.470588237 0.290196091
v 0 -0.140000001 0.280000001 0.690196097 0.470588237 0.290196091
v 0 -0.140000001 0.210000008 0.704684913 0.483917981 0.297730297
v 0.0700000003 -0.140000001 0.280000001 0.704684913 0.483917981 0.297730297
v 0 -0.140000001 0.280000001 0.704684913 0.483917981 0.297730297
v 0.140000001 -0.140000001 0.280000001 0.704684913 0.483917981 0.297730297
v 0.140000001 -0.140000001 0.210000008 0.71542871 0.493802249 0.30331707
v 0.210000008 -0.140000001 0.280000001 0.71542871 0.493802249 0.30331707
v 0.140000001 -0.140000001 0.280000001 0.71542871 0.493802249 0.30331707
v 0.280000001 -0.0700000003 0 0.744053364 0.520136952 0.31820187
v 0.280000001 -0.0700000003 0.0700000003 0.744053364 0.520136952 0.31820187
v 0.280000001 -0.0700000003 0.0700000003 0.755117714 0.530316114 0.323955327
v 0.280000001 -0.0700000003 0.140000001 0.755117714 0.530316114 0.323955327
v 0.280000001 -0.0700000003 0.210000008 0.755117714 0.530316114 0.323955327
v 0.280000001 -0.0700000003 0.210000008 0.768579781 0.542701244 0.330955595
v 0.280000001 -0.0700000003 0.280000001 0.768579781 0.542701244 0.330955595
v 0.140000001 -0.0700000003 0.280000001 0.744053364 0.520136952 0.31820187
v 0.140000001 -0.0700000003 0.349999994 0.744053364 0.520136952 0.31820187
v 0.140000001 -0.0700000003 0.280000001 0.755117714 0.530316114 0.323955327
v 0.210000008 -0.0700000003 0.280000001 0.755117714 0.530316114 0.323955327
v 0.210000008 -0.0700000003 0.349999994 0.755117714 0.530316114 0.323955327
v 0.140000001 -0.0700000003 0.349999994 0.755117714 0.530316114 0.323955327
v 0.280000001 -0.0700000003 0.280000001 0.755117714 0.530316114 0.323955327
v 0.280000001 -0.0700000003 0.349999994 0.755117714 0.530316114 0.323955327
v 0.280000001 -0.0700000003 0.349999994 0.768579781 0.542701244 0.330955595
v 0.280000001 0 -0.0700000003 0.744053364 0.520136952 0.31820187
v 0.280000001 0 0 0.744053364 0.520136952 0.31820187
v 0.349999994 0 0.0700000003 0.779974163 0.553184032 0.336880684
v 0.349999994 0 0.140000001 0.779974163 0.553184032 0.336880684
v 0.349999994 0 0.210000008 0.779974163 0.553184032 0.336880684
v 0.349999994 0 0.280000001 0.779974163 0.553184032 0.336880684
v 0.0700000003 0 0.280000001 0.755117714 0.530316114 0.323955327
v 0.0700000003 0 0.349999994 0.755117714 0.530316114 0.323955327
v 0.140000001 0 0.349999994 0.768579781 0.542701244 0.330955595
v 0.140000001 0 0.420000017 0.768579781 0.542701244 0.330955595
v 0.140000001 0 0.349999994 0.779974163 0.553184032 0.336880684
v 0.210000008 0 0.349999994 0.779974163 0.553184032 0.336880684
v 0.210000008 0 0.420000017 0.779974163 0.553184032 0.336880684
v 0.140000001 0 0.420000017 0.779974163 0.553184032 0.336880684
v 0.280000001 0 0.349999994 0.779974163 0.553184032 0.336880684
v 0.280000001 0 0.420000017 0.779974163 0.553184032 0.336880684
v 0.349999994 0.0700000003 0 0.779974163 0.553184032 0.336880684
v 0.349999994 0.0700000003 0.0700000003 0.779974163 0.553184032 0.336880684
v 0 0.0700000003 0.280000001 0.744053364 0.520136952 0.31820187
v 0 0.0700000003 0.349999994 0.744053364 0.520136952 0.31820187
v -0.140000001 -0.0700000003 0.280000001 0.690196097 0.470588237 0.290196091
v -0.0700000003 -0.0700000003 0.280000001 0.690196097 0.470588237 0.290196091
v 0 -0.0700000003 0.280000001 0.690196097 0.470588237 0.290196091
v 0.0700000003 -0.0700000003 0.280000001 0.704684913 0.483917981 0.297730297
v 0 -0.0700000003 0.280000001 0.704684913 0.483917981 0.297730297
v 0.140000001 -0.0700000003 0.280000001 0.704684913 0.483917981 0.297730297
v 0.210000008 -0.0700000003 0.280000001 0.71542871 0.493802249 0.30331707
v 0.140000001 -0.0700000003 0.280000001 0.71542871 0.493802249 0.30331707
v -0.140000001 0 0.280000001 0.690196097 0.470588237 0.290196091
v -0.0700000003 0 0.280000001 0.690196097 0.470588237 0.290196091
v -0.0700000003 -0.0700000003 0.280000001 0.704684913 0.483917981 0.297730297
v 0 0 0.280000001 0.704684913 0.483917981 0.297730297
v -0.0700000003 0 0.280000001 0.704684913 0.483917981 0.297730297
v 0 -0.0700000003 0.280000001 0.71542871 0.493802249 0.30331707
v 0.0700000003 -0.0700000003 0.280000001 0.71542871 0.493802249 0.30331707
v 0.0700000003 0 0.280000001 0.71542871 0.493802249 0.30331707
v 0 0 0.280000001 0.71542871 0.493802249 0.30331707
v -0.140000001 0.0700000003 0.280000001 0.690196097 0.470588237 0.290196091
v -0.0700000003 0.0700000003 0.280000001 0.690196097 0.470588237 0.290196091
v -0.0700000003 0 0.280000001 0.71542871 0.493802249 0.30331707
v 0 0.0700000003 0.280000001 0.71542871 0.493802249 0.30331707
v -0.0700000003 0.0700000003 0.280000001 0.71542871 0.493802249 0.30331707
v -0.140000001 0.0700000003 0.280000001 0.704684913 0.483917981 0.297730297
v -0.0700000003 0.0700000003 0.280000001 0.704684913 0.483917981 0.297730297
v -0.0700000003 0.140000001 0.280000001 0.704684913 0.483917981 0.297730297
v -0.140000001 0.140000001 0.280000001 0.704684913 0.483917981 0.297730297
v -0.0700000003 0.140000001 0.280000001 0.71542871 0.493802249 0.30331707
v 0 0.210000008 0.280000001 0.768579781 0.542701244 0.330955595
v 0.140000001 0 0.349999994 0.744053364 0.520136952 0.31820187
v 0.210000008 0 0.349999994 0.755117714 0.530316114 0.323955327
v 0.140000001 0 0.349999994 0.755117714 0.530316114 0.323955327
v 0.280000001 0 0.349999994 0.755117714 0.530316114 0.323955327
v 0.280000001 0 0.349999994 0.768579781 0.542701244 0.330955595
v 0.0700000003 0.0700000003 0.349999994 0.755117714 0.530316114 0.323955327
v 0 0.140000001 0.349999994 0.744053364 0.520136952 0.31820187
v 0 0.0700000003 0.349999994 0.768579781 0.542701244 0.330955595
v 0.0700000003 0.140000001 0.349999994 0.768579781 0.542701244 0.330955595
v 0 0.140000001 0.349999994 0.768579781 0.542701244 0.330955595
v 0 0.140000001 0.349999994 0.755117714 0.530316114 0.323955327
v 0.140000001 0.0700000003 0.420000017 0.768579781 0.542701244 0.330955595
v 0.140000001 0.0700000003 0.420000017 0.779974163 0.553184032 0.336880684
v 0.210000008 0.349999994 0.420000017 0.779974163 0.553184032 0.336880684
v 0.280000001 0.349999994 0.420000017 0.779974163 0.553184032 0.336880684
v 0.210000008 0.210000008 0.49000001 0.779974163 0.553184032 0.336880684
v 0.280000001 0.210000008 0.49000001 0.779974163 0.553184032 0.336880684
v -0.140000001 -0.0700000003 -0.280000001 0.690196097 0.470588237 0.290196091
v -0.0700000003 -0.0700000003 -0.280000001 0.690196097 0.470588237 0.290196091
v 0 -0.0700000003 -0.280000001 0.690196097 0.470588237 0.290196091
v 0.0700000003 -0.0700000003 -0.280000001 0.690196097 0.470588237 0.290196091
v 0.140000001 -0.0700000003 -0.280000001 0.690196097 0.470588237 0.290196091
v -0.140000001 0 -0.280000001 0.690196097 0.470588237 0.290196091
v -0.0700000003 0 -0.280000001 0.690196097 0.470588237 0.290196091
v 0 0 -0.280000001 0.690196097 0.470588237 0.290196091
v 0.0700000003 0 -0.280000001 0.690196097 0.470588237 0.290196091
v 0.140000001 0 -0.280000001 0.690196097 0.470588237 0.290196091
v -0.140000001 0.0700000003 -0.280000001 0.690196097 0.470588237 0.290196091
v -0.0700000003 0.0700000003 -0.280000001 0.690196097 0.470588237 0.290196091
v 0 0.0700000003 -0.280000001 0.690196097 0.470588237 0.290196091
v 0.0700000003 0.0700000003 -0.280000001 0.690196097 0.470588237 0.290196091
v 0.140000001 0.0700000003 -0.280000001 0.690196097 0.470588237 0.290196091
v 0.140000001 0.140000001 -0.140000001 0.71542871 0.493802249 0.30331707
v 0.210000008 0.140000001 -0.140000001 0.71542871 0.493802249 0.30331707
v 0.210000008 0.140000001 -0.140000001 0.726953566 0.504405141 0.309309989
v 0.280000001 0.0700000003 -0.0700000003 0.744053364 0.520136952 0.31820187
v 0.280000001 0.0700000003 -0.0700000003 0.755117714 0.530316114 0.323955327
v 0.280000001 0.140000001 -0.0700000003 0.755117714 0.530316114 0.323955327
v 0.280000001 0.210000008 -0.0700000003 0.755117714 0.530316114 0.323955327
v 0.140000001 0.210000008 -0.0700000003 0.755117714 0.530316114 0.323955327
v 0.140000001 0.210000008 -0.0700000003 0.768579781 0.542701244 0.330955595
v 0.210000008 0.210000008 -0.0700000003 0.768579781 0.542701244 0.330955595
v 0.280000001 0.210000008 -0.0700000003 0.768579781 0.542701244 0.330955595
v 0.349999994 0.140000001 0 0.779974163 0.553184032 0.336880684
v 0.349999994 0.210000008 0 0.779974163 0.553184032 0.336880684
v 0.140000001 0.280000001 0 0.779974163 0.553184032 0.336880684
v 0.210000008 0.280000001 0 0.779974163 0.553184032 0.336880684
v 0.280000001 0.280000001 0 0.779974163 0.553184032 0.336880684
v -0.0700000003 0.140000001 0.0700000003 0.704684913 0.483917981 0.297730297
v 0 0.210000008 0.140000001 0.755117714 0.530316114 0.323955327
f 1 2 3 4
f 2 5 6 3
f 5 7 8 6
f 7 9 10 8
f 11 12 13 14
f 12 15 16 13
f 15 17 18 16
f 17 19 20 18
f 14 13 21 22
f 13 16 23 21
f 24 25 26 27
f 25 28 29 26
f 30 31 32 33
f 22 21 34 35
f 36 27 37 38
f 39 38 40 41
f 41 40 42 43
f 44 45 46 47
f 48 49 50 51
f 47 46 52 53
f 51 50 54 55
f 56 57 58 59
f 60 61 62 63
f 64 65 66 67
f 65 68 69 66
f 70 71 72 73
f 74 63 75 76
f 77 67 78 79
f 80 81 82 83
f 84 79 85 86
f 82 87 88 89
f 86 85 90 91
f 92 93 94 95
f 95 94 96 97
f 98 99 100 101
f 102 103 104 105
f 106 107 108 109
f 107 110 111 108
f 112 113 114 115
f 113 116 117 114
f 116 118 119 117
f 120 115 121 122
f 115 114 123 121
f 119 124 125 126
f 122 121 127 128
f 125 129 130 131
f 128 127 132 133
f 131 130 134 135
f 133 132 136 137
f 138 135 139 140
f 135 134 141 139
f 136 142 143 144
f 142 145 146 143
f 145 140 147 146
f 140 139 148 147
f 149 150 151 152
f 150 153 154 151
f 155 152 156 157
f 152 151 158 156
f 151 154 159 158
f 154 160 161 159
f 157 156 162 163
f 156 158 164 162
f 158 159 165 164
f 159 161 166 165
f 163 162 167 168
f 162 164 169 167
f 164 165 170 169
f 171 174 173 172
f 172 173 176 175
f 175 176 178 177
f 177 178 180 179
f 174 182 181 173
f 173 181 183 176
f 176 183 184 178
f 178 184 185 180
f 182 187 186 181
f 181 186 188 183
f 183 188 189 184
f 184 189 190 185
f 187 192 191 186
f 186 191 193 188
f 188 193 194 189
f 189 194 195 190
f 192 197 196 191
f 191 196 198 193
f 193 198 199 194
f 194 199 200 195
f 197 202 201 196
f 196 201 203 198
f 198 203 204 199
f 199 204 205 200
f 206 209 208 207
f 207 208 211 210
f 210 211 213 212
f 212 213 215 214
f 216 219 218 217
f 217 218 221 220
f 220 221 223 222
f 222 223 225 224
f 226 229 228 227
f 230 233 232 231
f 233 235 234 232
f 236 239 238 237
f 240 243 242 241
f 244 247 246 245
f 248 251 250 249
f 252 255 254 253
f 256 259 258 257
f 260 263 262 261
f 264 267 266 265
f 268 271 270 269
f 271 273 272 270
f 273 275 274 272
f 276 279 278 277
f 280 282 281 275
f 275 281 283 274
f 284 286 285 282
f 287 290 289 288
f 291 294 293 292
f 295 298 297 296
f 297 301 300 299
f 301 303 302 300
f 303 305 304 302
f 306 309 308 307
f 305 311 310 304
f 312 315 314 313
f 316 319 318 317
f 320 323 322 321
f 321 322 324 311
f 325 328 327 326
f 329 332 331 330
f 330 331 334 333
f 335 338 337 336
f 338 340 339 337
f 341 344 343 342
f 214 215 346 345
f 345 346 348 347
f 347 348 350 349
f 349 350 352 351
f 351 352 354 353
f 353 354 10 9
f 179 180 355 215
f 215 355 356 346
f 346 356 357 348
f 348 357 358 350
f 350 358 359 352
f 352 359 360 354
f 354 360 361 10
f 10 361 20 19
f 180 185 362 355
f 355 362 363 356
f 356 363 364 357
f 357 364 365 358
f 358 365 366 359
f 185 190 367 362
f 362 367 368 363
f 363 368 369 364
f 364 369 370 365
f 190 195 371 367
f 367 371 372 368
f 368 372 373 369
f 195 200 374 371
f 371 374 375 372
f 200 205 224 374
f 374 224 376 375
f 224 225 377 376
f 288 289 379 378
f 378 379 381 380
f 382 383 32 31
f 257 258 384 289
f 237 238 385 258
f 227 228 387 386
f 388 391 390 389
f 231 232 393 392
f 232 234 394 393
f 253 254 396 395
f 282 285 323 320
f 292 293 398 397
f 399 402 401 400
f 400 401 404 403
f 403 404 72 71
f 261 262 405 293
f 80 83 119 118
f 119 126 154 153
f 241 242 407 406
f 245 246 409 408
f 138 140 170 165
f 333 334 411 410
f 410 411 413 412
f 412 413 111 110
f 296 297 415 414
f 414 415 417 416
f 416 417 419 418
f 418 419 82 81
f 269 270 301 297
f 82 89 125 124
f 270 272 303 301
f 125 131 161 160
f 272 274 305 303
f 131 135 166 161
f 274 283 311 305
f 311 324 328 325
f 102 105 148 139
f 299 300 421 420
f 420 421 335 422
f 422 335 48 423
f 423 48 88 87
f 300 302 424 421
f 421 424 338 335
f 48 51 425 88
f 88 425 130 129
f 302 304 426 424
f 424 426 340 338
f 51 55 427 425
f 425 427 134 130
f 304 310 326 426
f 426 326 428 340
f 340 428 429 55
f 55 429 103 427
f 427 103 141 134
f 326 327 430 428
f 428 430 431 429
f 429 431 104 103
f 336 337 50 49
f 337 339 54 50
f 206 432 433 209
f 432 434 435 433
f 434 436 437 435
f 436 438 439 437
f 438 440 441 439
f 440 1 4 441
f 171 209 442 174
f 209 433 443 442
f 433 435 444 443
f 435 437 445 444
f 437 439 446 445
f 439 441 447 446
f 441 4 448 447
f 4 11 14 448
f 174 442 449 182
f 442 443 450 449
f 443 444 451 450
f 444 445 452 451
f 445 446 453 452
f 446 447 454 453
f 447 448 455 454
f 448 14 22 455
f 182 449 456 187
f 449 450 457 456
f 450 451 458 457
f 451 452 459 458
f 452 453 460 459
f 453 454 461 460
f 454 455 462 461
f 455 22 35 462
f 187 456 463 192
f 456 457 464 463
f 457 458 465 464
f 458 459 466 465
f 459 460 467 466
f 460 461 468 467
f 461 462 469 468
f 470 39 41 471
f 192 463 472 197
f 463 464 473 472
f 464 465 474 473
f 465 466 475 474
f 466 467 476 475
f 467 468 477 476
f 478 471 479 480
f 471 41 43 479
f 197 472 216 202
f 472 473 481 216
f 473 474 482 481
f 474 475 483 482
f 475 476 484 483
f 485 480 486 487
f 480 479 488 486
f 489 44 47 490
f 216 481 491 219
f 481 482 492 491
f 482 483 493 492
f 494 487 495 496
f 487 486 497 495
f 498 490 499 500
f 490 47 53 499
f 501 74 76 502
f 503 84 86 504
f 504 86 91 505
f 506 92 95 507
f 306 508 509 309
f 510 511 512 513
f 511 514 515 512
f 507 95 97 516
f 517 60 63 518
f 519 120 122 520
f 520 122 128 521
f 521 128 133 522
f 276 523 524 279
f 522 133 137 98
f 312 525 526 315
f 527 528 529 530
f 528 531 532 529
f 531 98 101 532
f 533 112 115 534
f 121 155 157 127
f 127 157 163 132
f 248 535 536 251
f 132 163 168 136
f 99 136 144 100
f 341 56 59 344
f 114 149 152 123
f 284 317 318 286
f 329 342 343 332
f 57 106 109 58
f 202 216 217 201
f 201 217 220 203
f 203 220 222 204
f 204 222 224 205
f 219 491 537 218
f 491 492 538 537
f 492 493 539 538
f 496 495 540 541
f 495 497 542 540
f 500 499 543 544
f 499 53 52 543
f 218 537 545 221
f 537 538 546 545
f 547 541 548 549
f 550 551 552 553
f 221 545 554 223
f 545 546 555 554
f 556 553 557 558
f 223 554 377 225
f 559 560 561 562
f 235 563 394 234
f 247 564 409 246
f 138 165 166 135
f 340 55 54 339
f 309 509 565 308
f 513 512 566 567
f 512 515 568 566
f 516 97 96 569
f 279 524 570 278
f 98 137 136 99
f 251 536 571 250
f 572 313 573 574
f 136 168 167 142
f 255 575 396 254
f 142 167 169 145
f 282 320 321 281
f 145 169 170 140
f 281 321 311 283
f 311 325 326 310
f 102 139 141 103
f 315 526 576 314
f 530 529 341 577
f 529 532 56 341
f 532 101 100 56
f 319 577 329 318
f 577 341 342 329
f 56 100 106 57
f 100 144 143 106
f 286 318 323 285
f 318 329 330 323
f 106 143 146 107
f 323 330 333 322
f 107 146 147 110
f 322 333 328 324
f 333 410 578 328
f 410 412 579 578
f 412 110 105 579
f 110 147 148 105
f 328 578 430 327
f 578 579 431 430
f 579 105 104 431
f 344 59 58 343
f 332 343 580 331
f 343 58 581 580
f 58 109 108 581
f 331 580 411 334
f 580 581 413 411
f 581 108 111 413
f 206 207 582 432
f 432 582 583 434
f 434 583 584 436
f 436 584 585 438
f 438 585 586 440
f 440 586 2 1
f 207 210 587 582
f 582 587 588 583
f 583 588 589 584
f 584 589 590 585
f 585 590 591 586
f 586 591 5 2
f 210 212 592 587
f 587 592 593 588
f 588 593 594 589
f 589 594 595 590
f 590 595 596 591
f 591 596 7 5
f 212 214 345 592
f 592 345 347 593
f 593 347 349 594
f 594 349 351 595
f 595 351 353 596
f 596 353 9 7
f 171 172 208 209
f 4 3 12 11
f 172 175 211 208
f 3 6 15 12
f 175 177 213 211
f 6 8 17 15
f 177 179 215 213
f 8 10 19 17
f 287 288 378 597
f 597 378 380 598
f 599 382 31 30
f 517 600 61 60
f 601 602 65 64
f 256 257 289 290
f 602 603 68 65
f 291 292 397 604
f 605 399 400 606
f 606 400 403 607
f 607 403 71 70
f 501 518 63 74
f 533 608 113 112
f 236 237 258 259
f 608 609 116 113
f 260 261 293 294
f 609 80 118 116
f 295 296 414 610
f 610 414 416 611
f 611 416 418 612
f 612 418 81 80
f 519 534 115 120
f 226 227 386 613
f 114 117 150 149
f 117 119 153 150
f 268 269 297 298
f 83 82 124 119
f 297 299 420 415
f 415 420 422 417
f 417 422 423 419
f 419 423 87 82
f 121 123 152 155
f 240 241 406 614
f 126 125 160 154
f 89 88 129 125
f 335 336 49 48
