# claycore OBJ export (vertex-color extension: v x y z r g b)
mtllib 69_shared_brush_adaptive.mtl
usemtl clay_default
o claycore
v -1 0 -1
v -1 0.0399305448 -0.916666687
v -0.916666687 0.0399305448 -1
v -0.916666687 0.0798610896 -0.916666687
v -0.833333313 0.0763888955 -1
v -0.833333313 0.11631944 -0.916666687
v -0.75 0.109375 -1
v -0.75 0.149305552 -0.916666687
v -0.666666687 0.138888881 -1
v -0.666666687 0.178819433 -0.916666687
v -0.583333313 0.164930567 -1
v -0.583333313 0.204861104 -0.916666687
v -0.5 0.1875 -1
v -0.5 0.227430552 -0.916666687
v -0.416666657 0.206597224 -1
v -0.416666657 0.246527776 -0.916666687
v -0.333333343 0.222222224 -1
v -0.333333343 0.262152761 -0.916666687
v -0.25 0.234375 -1
v -0.25 0.274305552 -0.916666687
v -0.166666672 0.243055552 -1
v -0.166666672 0.282986104 -0.916666687
v -0.0833333358 0.248263896 -1
v -0.0833333358 0.288194448 -0.916666687
v 0 0.25 -1
v 0 0.289930552 -0.916666687
v 0.0833333358 0.248263896 -1
v 0.0833333358 0.288194448 -0.916666687
v 0.166666672 0.243055552 -1
v 0.166666672 0.282986104 -0.916666687
v 0.25 0.234375 -1
v 0.25 0.274305552 -0.916666687
v 0.333333343 0.222222224 -1
v 0.333333343 0.262152761 -0.916666687
v 0.416666657 0.206597224 -1
v 0.416666657 0.246527776 -0.916666687
v 0.5 0.1875 -1
v 0.5 0.227430552 -0.916666687
v 0.583333313 0.164930567 -1
v 0.583333313 0.204861104 -0.916666687
v 0.666666687 0.138888881 -1
v 0.666666687 0.178819433 -0.916666687
v 0.75 0.109375 -1
v 0.75 0.149305552 -0.916666687
v 0.833333313 0.0763888955 -1
v 0.833333313 0.11631944 -0.916666687
v 0.916666687 0.0399305448 -1
v 0.916666687 0.0798610896 -0.916666687
v 1 0 -1
v 1 0.0399305448 -0.916666687
v -1 0.0763888955 -0.833333313
v -0.916666687 0.11631944 -0.833333313
v -0.833333313 0.152777791 -0.833333313
v -0.75 0.185763896 -0.833333313
v -0.666666687 0.215277776 -0.833333313
v -0.583333313 0.241319463 -0.833333313
v -0.5 0.263888896 -0.833333313
v -0.416666657 0.282986134 -0.833333313
v -0.333333343 0.298611104 -0.833333313
v -0.25 0.310763896 -0.833333313
v -0.166666672 0.319444448 -0.833333313
v -0.0833333358 0.324652791 -0.833333313
v 0 0.326388896 -0.833333313
v 0.0833333358 0.324652791 -0.833333313
v 0.166666672 0.319444448 -0.833333313
v 0.25 0.310763896 -0.833333313
v 0.333333343 0.298611104 -0.833333313
v 0.416666657 0.282986134 -0.833333313
v 0.5 0.263888896 -0.833333313
v 0.583333313 0.241319463 -0.833333313
v 0.666666687 0.215277776 -0.833333313
v 0.75 0.185763896 -0.833333313
v 0.833333313 0.152777791 -0.833333313
v 0.916666687 0.11631944 -0.833333313
v 1 0.0763888955 -0.833333313
v -1 0.109375 -0.75
v -0.916666687 0.149305552 -0.75
v -0.833333313 0.185763896 -0.75
v -0.75 0.21875 -0.75
v -0.666666687 0.248263881 -0.75
v -0.583333313 0.274305552 -0.75
v -0.5 0.296875 -0.75
v -0.416666657 0.315972239 -0.75
v -0.333333343 0.331597209 -0.75
v -0.25 0.34375 -0.75
v -0.166666672 0.352430552 -0.75
v -0.0833333358 0.357638896 -0.75
v 0 0.359375 -0.75
v 0.0833333358 0.357638896 -0.75
v 0.166666672 0.352430552 -0.75
v 0.25 0.34375 -0.75
v 0.333333343 0.331597209 -0.75
v 0.416666657 0.315972239 -0.75
v 0.5 0.296875 -0.75
v 0.583333313 0.274305552 -0.75
v 0.666666687 0.248263881 -0.75
v 0.75 0.21875 -0.75
v 0.833333313 0.185763896 -0.75
v 0.916666687 0.149305552 -0.75
v 1 0.109375 -0.75
v -1 0.138888881 -0.666666687
v -0.916666687 0.178819433 -0.666666687
v -0.833333313 0.215277776 -0.666666687
v -0.75 0.248263881 -0.666666687
v -0.666666687 0.277777761 -0.666666687
v -0.583333313 0.303819448 -0.666666687
v -0.5 0.326388896 -0.666666687
v -0.416666657 0.345486104 -0.666666687
v -0.333333343 0.361111104 -0.666666687
v -0.25 0.373263896 -0.666666687
v -0.166666672 0.381944448 -0.666666687
v -0.0833333358 0.387152761 -0.666666687
v 0 0.388888896 -0.666666687
v 0.0833333358 0.387152761 -0.666666687
v 0.166666672 0.381944448 -0.666666687
v 0.25 0.373263896 -0.666666687
v 0.333333343 0.361111104 -0.666666687
v 0.416666657 0.345486104 -0.666666687
v 0.5 0.326388896 -0.666666687
v 0.583333313 0.303819448 -0.666666687
v 0.666666687 0.277777761 -0.666666687
v 0.75 0.248263881 -0.666666687
v 0.833333313 0.215277776 -0.666666687
v 0.916666687 0.178819433 -0.666666687
v 1 0.138888881 -0.666666687
v -1 0.164930567 -0.583333313
v -0.916666687 0.204861104 -0.583333313
v -0.833333313 0.241319463 -0.583333313
v -0.75 0.274305552 -0.583333313
v -0.666666687 0.303819448 -0.583333313
v -0.583333313 0.329861134 -0.583333313
v -0.5 0.352430552 -0.583333313
v -0.416666657 0.371527791 -0.583333313
v -0.333333343 0.387152791 -0.583333313
v -0.25 0.399305552 -0.583333313
v -0.166666672 0.407986104 -0.583333313
v -0.0833333358 0.413194448 -0.583333313
v 0 0.414930552 -0.583333313
v 0.0833333358 0.413194448 -0.583333313
v 0.166666672 0.407986104 -0.583333313
v 0.25 0.399305552 -0.583333313
v 0.333333343 0.387152791 -0.583333313
v 0.416666657 0.371527791 -0.583333313
v 0.5 0.352430552 -0.583333313
v 0.583333313 0.329861134 -0.583333313
v 0.666666687 0.303819448 -0.583333313
v 0.75 0.274305552 -0.583333313
v 0.833333313 0.241319463 -0.583333313
v 0.916666687 0.204861104 -0.583333313
v 1 0.164930567 -0.583333313
v -1 0.1875 -0.5
v -0.916666687 0.227430552 -0.5
v -0.833333313 0.263888896 -0.5
v -0.75 0.296875 -0.5
v -0.666666687 0.326388896 -0.5
v -0.583333313 0.352430552 -0.5
v -0.5 0.375 -0.5
v -0.416666657 0.394097239 -0.5
v -0.333333343 0.409722209 -0.5
v -0.25 0.421875 -0.5
v -0.166666672 0.430555552 -0.5
v -0.0833333358 0.435763896 -0.5
v 0 0.4375 -0.5
v 0.0833333358 0.435763896 -0.5
v 0.166666672 0.430555552 -0.5
v 0.25 0.421875 -0.5
v 0.333333343 0.409722209 -0.5
v 0.416666657 0.394097239 -0.5
v 0.5 0.375 -0.5
v 0.583333313 0.352430552 -0.5
v 0.666666687 0.326388896 -0.5
v 0.75 0.296875 -0.5
v 0.833333313 0.263888896 -0.5
v 0.916666687 0.227430552 -0.5
v 1 0.1875 -0.5
v -1 0.206597224 -0.416666657
v -0.916666687 0.246527776 -0.416666657
v -0.833333313 0.282986134 -0.416666657
v -0.75 0.315972239 -0.416666657
v -0.666666687 0.345486104 -0.416666657
v -0.583333313 0.371527791 -0.416666657
v -0.5 0.394097239 -0.416666657
v -0.416666657 0.413194448 -0.416666657
v -0.333333343 0.428819448 -0.416666657
v -0.25 0.440972239 -0.416666657
v -0.166666672 0.449652791 -0.416666657
v -0.0833333358 0.454861104 -0.416666657
v 0 0.456597239 -0.416666657
v 0.0833333358 0.454861104 -0.416666657
v 0.166666672 0.449652791 -0.416666657
v 0.25 0.440972239 -0.416666657
v 0.333333343 0.428819448 -0.416666657
v 0.416666657 0.413194448 -0.416666657
v 0.5 0.394097239 -0.416666657
v 0.583333313 0.371527791 -0.416666657
v 0.666666687 0.345486104 -0.416666657
v 0.75 0.315972239 -0.416666657
v 0.833333313 0.282986134 -0.416666657
v 0.916666687 0.246527776 -0.416666657
v 1 0.206597224 -0.416666657
v -1 0.222222224 -0.333333343
v -0.916666687 0.262152761 -0.333333343
v -0.833333313 0.298611104 -0.333333343
v -0.75 0.331597209 -0.333333343
v -0.666666687 0.361111104 -0.333333343
v -0.583333313 0.387152791 -0.333333343
v -0.5 0.409722209 -0.333333343
v -0.416666657 0.428819448 -0.333333343
v -0.333333343 0.444444448 -0.333333343
v -0.25 0.456597209 -0.333333343
v -0.166666672 0.465277761 -0.333333343
v -0.0833333358 0.470486104 -0.333333343
v 0 0.472222209 -0.333333343
v 0.0833333358 0.470486104 -0.333333343
v 0.166666672 0.465277761 -0.333333343
v 0.25 0.456597209 -0.333333343
v 0.333333343 0.444444448 -0.333333343
v 0.416666657 0.428819448 -0.333333343
v 0.5 0.409722209 -0.333333343
v 0.583333313 0.387152791 -0.333333343
v 0.666666687 0.361111104 -0.333333343
v 0.75 0.331597209 -0.333333343
v 0.833333313 0.298611104 -0.333333343
v 0.916666687 0.262152761 -0.333333343
v 1 0.222222224 -0.333333343
v -1 0.234375 -0.25
v -0.916666687 0.274305552 -0.25
v -0.833333313 0.310763896 -0.25
v -0.75 0.34375 -0.25
v -0.666666687 0.373263896 -0.25
v -0.583333313 0.399305552 -0.25
v -0.5 0.421875 -0.25
v -0.416666657 0.440972239 -0.25
v -0.333333343 0.456597209 -0.25
v -0.25 0.46875 -0.25
v -0.166666672 0.477430552 -0.25
v -0.0833333358 0.482638896 -0.25
v 0 0.484375 -0.25
v 0.0833333358 0.482638896 -0.25
v 0.166666672 0.477430552 -0.25
v 0.25 0.46875 -0.25
v 0.333333343 0.456597209 -0.25
v 0.416666657 0.440972239 -0.25
v 0.5 0.421875 -0.25
v 0.583333313 0.399305552 -0.25
v 0.666666687 0.373263896 -0.25
v 0.75 0.34375 -0.25
v 0.833333313 0.310763896 -0.25
v 0.916666687 0.274305552 -0.25
v 1 0.234375 -0.25
v -1 0.243055552 -0.166666672
v -0.916666687 0.282986104 -0.166666672
v -0.833333313 0.319444448 -0.166666672
v -0.75 0.352430552 -0.166666672
v -0.666666687 0.381944448 -0.166666672
v -0.583333313 0.407986104 -0.166666672
v -0.499599069 0.431357384 -0.166666672
v -0.413217962 0.456550181 -0.166666672
v -0.326292098 0.479360223 -0.166666672
v -0.239014775 0.499401003 -0.166666672
v -0.151490271 0.516463876 -0.166666672
v -0.0648756027 0.528234959 -0.166666672
v 0.0194150247 0.531885624 -0.166666672
v 0.101701409 0.528055668 -0.166666672
v 0.181978732 0.516735256 -0.166666672
v 0.261052668 0.499535859 -0.166666672
v 0.340432256 0.479475617 -0.166666672
v 0.420070946 0.4564614 -0.166666672
v 0.500375032 0.431305707 -0.166666672
v 0.583333313 0.407986104 -0.166666672
v 0.666666687 0.381944448 -0.166666672
v 0.75 0.352430552 -0.166666672
v 0.833333313 0.319444448 -0.166666672
v 0.916666687 0.282986104 -0.166666672
v 1 0.243055552 -0.166666672
v -1 0.248263896 -0.0833333358
v -0.916666687 0.288194448 -0.0833333358
v -0.833333313 0.324652791 -0.0833333358
v -0.75 0.357638896 -0.0833333358
v -0.666666687 0.387152761 -0.0833333358
v -0.581563592 0.416733921 -0.0833333358
v -0.413348407 0.609067082 -0.0833333358
v -0.242297485 0.803599417 -0.0833333358
v -0.162472248 0.812208056 -0.0833333358
v -0.083995834 0.814647198 -0.0833333358
v -0.00454199361 0.815568745 -0.0833333358
v 0.0758882612 0.814971089 -0.0833333358
v 0.157567382 0.813398778 -0.0833333358
v 0.240098789 0.810058773 -0.0833333358
v 0.323021382 0.804028869 -0.0833333358
v 0.406659007 0.79595685 -0.0833333358
v 0.484623522 0.773066461 -0.0833333358
v 0.527310967 0.676149666 -0.0833333358
v 0.527241111 0.490246087 -0.0833333358
v 0.584861755 0.416251361 -0.0833333358
v 0.666666687 0.387152761 -0.0833333358
v 0.75 0.357638896 -0.0833333358
v 0.833333313 0.324652791 -0.0833333358
v 0.916666687 0.288194448 -0.0833333358
v 1 0.248263896 -0.0833333358
v -1 0.25 0
v -0.916666687 0.289930552 0
v -0.833333313 0.326388896 0
v -0.75 0.359375 0
v -0.666666687 0.388888896 0
v -0.576654613 0.428288013 0
v -0.314060062 0.809379876 0
v -0.228468478 0.832993507 0
v -0.151012152 0.836864591 0
v -0.0728939325 0.838587105 0
v 0.00634722505 0.839083433 0
v 0.086661756 0.838254154 0
v 0.168340102 0.836680353 0
v 0.250983864 0.833565056 0
v 0.334194601 0.828111351 0
v 0.418399036 0.821173072 0
v 0.499612898 0.804781377 0
v 0.564071238 0.751406431 0
v 0.558447123 0.554394126 0
v 0.588432968 0.42512992 0
v 0.666666687 0.388888896 0
v 0.75 0.359375 0
v 0.833333313 0.326388896 0
v 0.916666687 0.289930552 0
v 1 0.25 0
v -1 0.248263896 0.0833333358
v -0.916666687 0.288194448 0.0833333358
v -0.833333313 0.324652791 0.0833333358
v -0.75 0.357638896 0.0833333358
v -0.666666687 0.387152761 0.0833333358
v -0.581563592 0.416733921 0.0833333358
v -0.413348407 0.609067082 0.0833333358
v -0.242297485 0.803599417 0.0833333358
v -0.162472248 0.812208056 0.0833333358
v -0.083995834 0.814647198 0.0833333358
v -0.00454199361 0.815568745 0.0833333358
v 0.0758882612 0.814971089 0.0833333358
v 0.157567382 0.813398778 0.0833333358
v 0.240098789 0.810058773 0.0833333358
v 0.323021382 0.804028869 0.0833333358
v 0.406659007 0.79595685 0.0833333358
v 0.484623522 0.773066461 0.0833333358
v 0.527310967 0.676149666 0.0833333358
v 0.527241111 0.490246087 0.0833333358
v 0.584861755 0.416251361 0.0833333358
v 0.666666687 0.387152761 0.0833333358
v 0.75 0.357638896 0.0833333358
v 0.833333313 0.324652791 0.0833333358
v 0.916666687 0.288194448 0.0833333358
v 1 0.248263896 0.0833333358
v -1 0.243055552 0.166666672
v -0.916666687 0.282986104 0.166666672
v -0.833333313 0.319444448 0.166666672
v -0.75 0.352430552 0.166666672
v -0.666666687 0.381944448 0.166666672
v -0.583333313 0.407986104 0.166666672
v -0.499599069 0.431357384 0.166666672
v -0.413217962 0.456550181 0.166666672
v -0.326292098 0.479360223 0.166666672
v -0.239014775 0.499401003 0.166666672
v -0.151490271 0.516463876 0.166666672
v -0.0648756027 0.528234959 0.166666672
v 0.0194150247 0.531885624 0.166666672
v 0.101701409 0.528055668 0.166666672
v 0.181978732 0.516735256 0.166666672
v 0.261052668 0.499535859 0.166666672
v 0.340432256 0.479475617 0.166666672
v 0.420070946 0.4564614 0.166666672
v 0.500375032 0.431305707 0.166666672
v 0.583333313 0.407986104 0.166666672
v 0.666666687 0.381944448 0.166666672
v 0.75 0.352430552 0.166666672
v 0.833333313 0.319444448 0.166666672
v 0.916666687 0.282986104 0.166666672
v 1 0.243055552 0.166666672
v -1 0.234375 0.25
v -0.916666687 0.274305552 0.25
v -0.833333313 0.310763896 0.25
v -0.75 0.34375 0.25
v -0.666666687 0.373263896 0.25
v -0.583333313 0.399305552 0.25
v -0.5 0.421875 0.25
v -0.416666657 0.440972239 0.25
v -0.333333343 0.456597209 0.25
v -0.25 0.46875 0.25
v -0.166666672 0.477430552 0.25
v -0.0833333358 0.482638896 0.25
v 0 0.484375 0.25
v 0.0833333358 0.482638896 0.25
v 0.166666672 0.477430552 0.25
v 0.25 0.46875 0.25
v 0.333333343 0.456597209 0.25
v 0.416666657 0.440972239 0.25
v 0.5 0.421875 0.25
v 0.583333313 0.399305552 0.25
v 0.666666687 0.373263896 0.25
v 0.75 0.34375 0.25
v 0.833333313 0.310763896 0.25
v 0.916666687 0.274305552 0.25
v 1 0.234375 0.25
v -1 0.222222224 0.333333343
v -0.916666687 0.262152761 0.333333343
v -0.833333313 0.298611104 0.333333343
v -0.75 0.331597209 0.333333343
v -0.666666687 0.361111104 0.333333343
v -0.583333313 0.387152791 0.333333343
v -0.5 0.409722209 0.333333343
v -0.416666657 0.428819448 0.333333343
v -0.333333343 0.444444448 0.333333343
v -0.25 0.456597209 0.333333343
v -0.166666672 0.465277761 0.333333343
v -0.0833333358 0.470486104 0.333333343
v 0 0.472222209 0.333333343
v 0.0833333358 0.470486104 0.333333343
v 0.166666672 0.465277761 0.333333343
v 0.25 0.456597209 0.333333343
v 0.333333343 0.444444448 0.333333343
v 0.416666657 0.428819448 0.333333343
v 0.5 0.409722209 0.333333343
v 0.583333313 0.387152791 0.333333343
v 0.666666687 0.361111104 0.333333343
v 0.75 0.331597209 0.333333343
v 0.833333313 0.298611104 0.333333343
v 0.916666687 0.262152761 0.333333343
v 1 0.222222224 0.333333343
v -1 0.206597224 0.416666657
v -0.916666687 0.246527776 0.416666657
v -0.833333313 0.282986134 0.416666657
v -0.75 0.315972239 0.416666657
v -0.666666687 0.345486104 0.416666657
v -0.583333313 0.371527791 0.416666657
v -0.5 0.394097239 0.416666657
v -0.416666657 0.413194448 0.416666657
v -0.333333343 0.428819448 0.416666657
v -0.25 0.440972239 0.416666657
v -0.166666672 0.449652791 0.416666657
v -0.0833333358 0.454861104 0.416666657
v 0 0.456597239 0.416666657
v 0.0833333358 0.454861104 0.416666657
v 0.166666672 0.449652791 0.416666657
v 0.25 0.440972239 0.416666657
v 0.333333343 0.428819448 0.416666657
v 0.416666657 0.413194448 0.416666657
v 0.5 0.394097239 0.416666657
v 0.583333313 0.371527791 0.416666657
v 0.666666687 0.345486104 0.416666657
v 0.75 0.315972239 0.416666657
v 0.833333313 0.282986134 0.416666657
v 0.916666687 0.246527776 0.416666657
v 1 0.206597224 0.416666657
v -1 0.1875 0.5
v -0.916666687 0.227430552 0.5
v -0.833333313 0.263888896 0.5
v -0.75 0.296875 0.5
v -0.666666687 0.326388896 0.5
v -0.583333313 0.352430552 0.5
v -0.5 0.375 0.5
v -0.416666657 0.394097239 0.5
v -0.333333343 0.409722209 0.5
v -0.25 0.421875 0.5
v -0.166666672 0.430555552 0.5
v -0.0833333358 0.435763896 0.5
v 0 0.4375 0.5
v 0.0833333358 0.435763896 0.5
v 0.166666672 0.430555552 0.5
v 0.25 0.421875 0.5
v 0.333333343 0.409722209 0.5
v 0.416666657 0.394097239 0.5
v 0.5 0.375 0.5
v 0.583333313 0.352430552 0.5
v 0.666666687 0.326388896 0.5
v 0.75 0.296875 0.5
v 0.833333313 0.263888896 0.5
v 0.916666687 0.227430552 0.5
v 1 0.1875 0.5
v -1 0.164930567 0.583333313
v -0.916666687 0.204861104 0.583333313
v -0.833333313 0.241319463 0.583333313
v -0.75 0.274305552 0.583333313
v -0.666666687 0.303819448 0.583333313
v -0.583333313 0.329861134 0.583333313
v -0.5 0.352430552 0.583333313
v -0.416666657 0.371527791 0.583333313
v -0.333333343 0.387152791 0.583333313
v -0.25 0.399305552 0.583333313
v -0.166666672 0.407986104 0.583333313
v -0.0833333358 0.413194448 0.583333313
v 0 0.414930552 0.583333313
v 0.0833333358 0.413194448 0.583333313
v 0.166666672 0.407986104 0.583333313
v 0.25 0.399305552 0.583333313
v 0.333333343 0.387152791 0.583333313
v 0.416666657 0.371527791 0.583333313
v 0.5 0.352430552 0.583333313
v 0.583333313 0.329861134 0.583333313
v 0.666666687 0.303819448 0.583333313
v 0.75 0.274305552 0.583333313
v 0.833333313 0.241319463 0.583333313
v 0.916666687 0.204861104 0.583333313
v 1 0.164930567 0.583333313
v -1 0.138888881 0.666666687
v -0.916666687 0.178819433 0.666666687
v -0.833333313 0.215277776 0.666666687
v -0.75 0.248263881 0.666666687
v -0.666666687 0.277777761 0.666666687
v -0.583333313 0.303819448 0.666666687
v -0.5 0.326388896 0.666666687
v -0.416666657 0.345486104 0.666666687
v -0.333333343 0.361111104 0.666666687
v -0.25 0.373263896 0.666666687
v -0.166666672 0.381944448 0.666666687
v -0.0833333358 0.387152761 0.666666687
v 0 0.388888896 0.666666687
v 0.0833333358 0.387152761 0.666666687
v 0.166666672 0.381944448 0.666666687
v 0.25 0.373263896 0.666666687
v 0.333333343 0.361111104 0.666666687
v 0.416666657 0.345486104 0.666666687
v 0.5 0.326388896 0.666666687
v 0.583333313 0.303819448 0.666666687
v 0.666666687 0.277777761 0.666666687
v 0.75 0.248263881 0.666666687
v 0.833333313 0.215277776 0.666666687
v 0.916666687 0.178819433 0.666666687
v 1 0.138888881 0.666666687
v -1 0.109375 0.75
v -0.916666687 0.149305552 0.75
v -0.833333313 0.185763896 0.75
v -0.75 0.21875 0.75
v -0.666666687 0.248263881 0.75
v -0.583333313 0.274305552 0.75
v -0.5 0.296875 0.75
v -0.416666657 0.315972239 0.75
v -0.333333343 0.331597209 0.75
v -0.25 0.34375 0.75
v -0.166666672 0.352430552 0.75
v -0.0833333358 0.357638896 0.75
v 0 0.359375 0.75
v 0.0833333358 0.357638896 0.75
v 0.166666672 0.352430552 0.75
v 0.25 0.34375 0.75
v 0.333333343 0.331597209 0.75
v 0.416666657 0.315972239 0.75
v 0.5 0.296875 0.75
v 0.583333313 0.274305552 0.75
v 0.666666687 0.248263881 0.75
v 0.75 0.21875 0.75
v 0.833333313 0.185763896 0.75
v 0.916666687 0.149305552 0.75
v 1 0.109375 0.75
v -1 0.0763888955 0.833333313
v -0.916666687 0.11631944 0.833333313
v -0.833333313 0.152777791 0.833333313
v -0.75 0.185763896 0.833333313
v -0.666666687 0.215277776 0.833333313
v -0.583333313 0.241319463 0.833333313
v -0.5 0.263888896 0.833333313
v -0.416666657 0.282986134 0.833333313
v -0.333333343 0.298611104 0.833333313
v -0.25 0.310763896 0.833333313
v -0.166666672 0.319444448 0.833333313
v -0.0833333358 0.324652791 0.833333313
v 0 0.326388896 0.833333313
v 0.0833333358 0.324652791 0.833333313
v 0.166666672 0.319444448 0.833333313
v 0.25 0.310763896 0.833333313
v 0.333333343 0.298611104 0.833333313
v 0.416666657 0.282986134 0.833333313
v 0.5 0.263888896 0.833333313
v 0.583333313 0.241319463 0.833333313
v 0.666666687 0.215277776 0.833333313
v 0.75 0.185763896 0.833333313
v 0.833333313 0.152777791 0.833333313
v 0.916666687 0.11631944 0.833333313
v 1 0.0763888955 0.833333313
v -1 0.0399305448 0.916666687
v -0.916666687 0.0798610896 0.916666687
v -0.833333313 0.11631944 0.916666687
v -0.75 0.149305552 0.916666687
v -0.666666687 0.178819433 0.916666687
v -0.583333313 0.204861104 0.916666687
v -0.5 0.227430552 0.916666687
v -0.416666657 0.246527776 0.916666687
v -0.333333343 0.262152761 0.916666687
v -0.25 0.274305552 0.916666687
v -0.166666672 0.282986104 0.916666687
v -0.0833333358 0.288194448 0.916666687
v 0 0.289930552 0.916666687
v 0.0833333358 0.288194448 0.916666687
v 0.166666672 0.282986104 0.916666687
v 0.25 0.274305552 0.916666687
v 0.333333343 0.262152761 0.916666687
v 0.416666657 0.246527776 0.916666687
v 0.5 0.227430552 0.916666687
v 0.583333313 0.204861104 0.916666687
v 0.666666687 0.178819433 0.916666687
v 0.75 0.149305552 0.916666687
v 0.833333313 0.11631944 0.916666687
v 0.916666687 0.0798610896 0.916666687
v 1 0.0399305448 0.916666687
v -1 0 1
v -0.916666687 0.0399305448 1
v -0.833333313 0.0763888955 1
v -0.75 0.109375 1
v -0.666666687 0.138888881 1
v -0.583333313 0.164930567 1
v -0.5 0.1875 1
v -0.416666657 0.206597224 1
v -0.333333343 0.222222224 1
v -0.25 0.234375 1
v -0.166666672 0.243055552 1
v -0.0833333358 0.248263896 1
v 0 0.25 1
v 0.0833333358 0.248263896 1
v 0.166666672 0.243055552 1
v 0.25 0.234375 1
v 0.333333343 0.222222224 1
v 0.416666657 0.206597224 1
v 0.5 0.1875 1
v 0.583333313 0.164930567 1
v 0.666666687 0.138888881 1
v 0.75 0.109375 1
v 0.833333313 0.0763888955 1
v 0.916666687 0.0399305448 1
v 1 0 1
f 1 2 3
f 3 2 4
f 3 4 5
f 5 4 6
f 5 6 7
f 7 6 8
f 7 8 9
f 9 8 10
f 9 10 11
f 11 10 12
f 11 12 13
f 13 12 14
f 13 14 15
f 15 14 16
f 15 16 17
f 17 16 18
f 17 18 19
f 19 18 20
f 19 20 21
f 21 20 22
f 21 22 23
f 23 22 24
f 23 24 25
f 25 24 26
f 25 26 27
f 27 26 28
f 27 28 29
f 29 28 30
f 29 30 31
f 31 30 32
f 31 32 33
f 33 32 34
f 33 34 35
f 35 34 36
f 35 36 37
f 37 36 38
f 37 38 39
f 39 38 40
f 39 40 41
f 41 40 42
f 41 42 43
f 43 42 44
f 43 44 45
f 45 44 46
f 45 46 47
f 47 46 48
f 47 48 49
f 49 48 50
f 2 51 4
f 4 51 52
f 4 52 6
f 6 52 53
f 6 53 8
f 8 53 54
f 8 54 10
f 10 54 55
f 10 55 12
f 12 55 56
f 12 56 14
f 14 56 57
f 14 57 16
f 16 57 58
f 16 58 18
f 18 58 59
f 18 59 20
f 20 59 60
f 20 60 22
f 22 60 61
f 22 61 24
f 24 61 62
f 24 62 26
f 26 62 63
f 26 63 28
f 28 63 64
f 28 64 30
f 30 64 65
f 30 65 32
f 32 65 66
f 32 66 34
f 34 66 67
f 34 67 36
f 36 67 68
f 36 68 38
f 38 68 69
f 38 69 40
f 40 69 70
f 40 70 42
f 42 70 71
f 42 71 44
f 44 71 72
f 44 72 46
f 46 72 73
f 46 73 48
f 48 73 74
f 48 74 50
f 50 74 75
f 51 76 52
f 52 76 77
f 52 77 53
f 53 77 78
f 53 78 54
f 54 78 79
f 54 79 55
f 55 79 80
f 55 80 56
f 56 80 81
f 56 81 57
f 57 81 82
f 57 82 58
f 58 82 83
f 58 83 59
f 59 83 84
f 59 84 60
f 60 84 85
f 60 85 61
f 61 85 86
f 61 86 62
f 62 86 87
f 62 87 63
f 63 87 88
f 63 88 64
f 64 88 89
f 64 89 65
f 65 89 90
f 65 90 66
f 66 90 91
f 66 91 67
f 67 91 92
f 67 92 68
f 68 92 93
f 68 93 69
f 69 93 94
f 69 94 70
f 70 94 95
f 70 95 71
f 71 95 96
f 71 96 72
f 72 96 97
f 72 97 73
f 73 97 98
f 73 98 74
f 74 98 99
f 74 99 75
f 75 99 100
f 76 101 77
f 77 101 102
f 77 102 78
f 78 102 103
f 78 103 79
f 79 103 104
f 79 104 80
f 80 104 105
f 80 105 81
f 81 105 106
f 81 106 82
f 82 106 107
f 82 107 83
f 83 107 108
f 83 108 84
f 84 108 109
f 84 109 85
f 85 109 110
f 85 110 86
f 86 110 111
f 86 111 87
f 87 111 112
f 87 112 88
f 88 112 113
f 88 113 89
f 89 113 114
f 89 114 90
f 90 114 115
f 90 115 91
f 91 115 116
f 91 116 92
f 92 116 117
f 92 117 93
f 93 117 118
f 93 118 94
f 94 118 119
f 94 119 95
f 95 119 120
f 95 120 96
f 96 120 121
f 96 121 97
f 97 121 122
f 97 122 98
f 98 122 123
f 98 123 99
f 99 123 124
f 99 124 100
f 100 124 125
f 101 126 102
f 102 126 127
f 102 127 103
f 103 127 128
f 103 128 104
f 104 128 129
f 104 129 105
f 105 129 130
f 105 130 106
f 106 130 131
f 106 131 107
f 107 131 132
f 107 132 108
f 108 132 133
f 108 133 109
f 109 133 134
f 109 134 110
f 110 134 135
f 110 135 111
f 111 135 136
f 111 136 112
f 112 136 137
f 112 137 113
f 113 137 138
f 113 138 114
f 114 138 139
f 114 139 115
f 115 139 140
f 115 140 116
f 116 140 141
f 116 141 117
f 117 141 142
f 117 142 118
f 118 142 143
f 118 143 119
f 119 143 144
f 119 144 120
f 120 144 145
f 120 145 121
f 121 145 146
f 121 146 122
f 122 146 147
f 122 147 123
f 123 147 148
f 123 148 124
f 124 148 149
f 124 149 125
f 125 149 150
f 126 151 127
f 127 151 152
f 127 152 128
f 128 152 153
f 128 153 129
f 129 153 154
f 129 154 130
f 130 154 155
f 130 155 131
f 131 155 156
f 131 156 132
f 132 156 157
f 132 157 133
f 133 157 158
f 133 158 134
f 134 158 159
f 134 159 135
f 135 159 160
f 135 160 136
f 136 160 161
f 136 161 137
f 137 161 162
f 137 162 138
f 138 162 163
f 138 163 139
f 139 163 164
f 139 164 140
f 140 164 165
f 140 165 141
f 141 165 166
f 141 166 142
f 142 166 167
f 142 167 143
f 143 167 168
f 143 168 144
f 144 168 169
f 144 169 145
f 145 169 170
f 145 170 146
f 146 170 171
f 146 171 147
f 147 171 172
f 147 172 148
f 148 172 173
f 148 173 149
f 149 173 174
f 149 174 150
f 150 174 175
f 151 176 152
f 152 176 177
f 152 177 153
f 153 177 178
f 153 178 154
f 154 178 179
f 154 179 155
f 155 179 180
f 155 180 156
f 156 180 181
f 156 181 157
f 157 181 182
f 157 182 158
f 158 182 183
f 158 183 159
f 159 183 184
f 159 184 160
f 160 184 185
f 160 185 161
f 161 185 186
f 161 186 162
f 162 186 187
f 162 187 163
f 163 187 188
f 163 188 164
f 164 188 189
f 164 189 165
f 165 189 190
f 165 190 166
f 166 190 191
f 166 191 167
f 167 191 192
f 167 192 168
f 168 192 193
f 168 193 169
f 169 193 194
f 169 194 170
f 170 194 195
f 170 195 171
f 171 195 196
f 171 196 172
f 172 196 197
f 172 197 173
f 173 197 198
f 173 198 174
f 174 198 199
f 174 199 175
f 175 199 200
f 176 201 177
f 177 201 202
f 177 202 178
f 178 202 203
f 178 203 179
f 179 203 204
f 179 204 180
f 180 204 205
f 180 205 181
f 181 205 206
f 181 206 182
f 182 206 207
f 182 207 183
f 183 207 208
f 183 208 184
f 184 208 209
f 184 209 185
f 185 209 210
f 185 210 186
f 186 210 211
f 186 211 187
f 187 211 212
f 187 212 188
f 188 212 213
f 188 213 189
f 189 213 214
f 189 214 190
f 190 214 215
f 190 215 191
f 191 215 216
f 191 216 192
f 192 216 217
f 192 217 193
f 193 217 218
f 193 218 194
f 194 218 219
f 194 219 195
f 195 219 220
f 195 220 196
f 196 220 221
f 196 221 197
f 197 221 222
f 197 222 198
f 198 222 223
f 198 223 199
f 199 223 224
f 199 224 200
f 200 224 225
f 201 226 202
f 202 226 227
f 202 227 203
f 203 227 228
f 203 228 204
f 204 228 229
f 204 229 205
f 205 229 230
f 205 230 206
f 206 230 231
f 206 231 207
f 207 231 232
f 207 232 208
f 208 232 233
f 208 233 209
f 209 233 234
f 209 234 210
f 210 234 235
f 210 235 211
f 211 235 236
f 211 236 212
f 212 236 237
f 212 237 213
f 213 237 238
f 213 238 214
f 214 238 239
f 214 239 215
f 215 239 240
f 215 240 216
f 216 240 241
f 216 241 217
f 217 241 242
f 217 242 218
f 218 242 243
f 218 243 219
f 219 243 244
f 219 244 220
f 220 244 245
f 220 245 221
f 221 245 246
f 221 246 222
f 222 246 247
f 222 247 223
f 223 247 248
f 223 248 224
f 224 248 249
f 224 249 225
f 225 249 250
f 226 251 227
f 227 251 252
f 227 252 228
f 228 252 253
f 228 253 229
f 229 253 254
f 229 254 230
f 230 254 255
f 230 255 231
f 231 255 256
f 231 256 232
f 232 256 257
f 232 257 233
f 233 257 258
f 233 258 234
f 234 258 259
f 234 259 235
f 235 259 260
f 235 260 236
f 236 260 261
f 236 261 237
f 237 261 262
f 237 262 238
f 238 262 263
f 238 263 239
f 239 263 264
f 239 264 240
f 240 264 265
f 240 265 241
f 241 265 266
f 241 266 242
f 242 266 267
f 242 267 243
f 243 267 268
f 243 268 244
f 244 268 269
f 244 269 245
f 245 269 270
f 245 270 246
f 246 270 271
f 246 271 247
f 247 271 272
f 247 272 248
f 248 272 273
f 248 273 249
f 249 273 274
f 249 274 250
f 250 274 275
f 251 276 252
f 252 276 277
f 252 277 253
f 253 277 278
f 253 278 254
f 254 278 279
f 254 279 255
f 255 279 280
f 255 280 256
f 256 280 281
f 256 281 257
f 257 281 282
f 257 282 258
f 258 282 283
f 258 283 259
f 259 283 284
f 259 284 260
f 260 284 285
f 260 285 261
f 261 285 286
f 261 286 262
f 262 286 287
f 262 287 263
f 263 287 288
f 263 288 264
f 264 288 289
f 264 289 265
f 265 289 290
f 265 290 266
f 266 290 291
f 266 291 267
f 267 291 292
f 267 292 268
f 268 292 293
f 268 293 269
f 269 293 294
f 269 294 270
f 270 294 295
f 270 295 271
f 271 295 296
f 271 296 272
f 272 296 297
f 272 297 273
f 273 297 298
f 273 298 274
f 274 298 299
f 274 299 275
f 275 299 300
f 276 301 277
f 277 301 302
f 277 302 278
f 278 302 303
f 278 303 279
f 279 303 304
f 279 304 280
f 280 304 305
f 280 305 281
f 281 305 306
f 281 306 282
f 282 306 307
f 282 307 283
f 283 307 308
f 283 308 284
f 284 308 309
f 284 309 285
f 285 309 310
f 285 310 286
f 286 310 311
f 286 311 287
f 287 311 312
f 287 312 288
f 288 312 313
f 288 313 289
f 289 313 314
f 289 314 290
f 290 314 315
f 290 315 291
f 291 315 316
f 291 316 292
f 292 316 317
f 292 317 293
f 293 317 318
f 293 318 294
f 294 318 319
f 294 319 295
f 295 319 320
f 295 320 296
f 296 320 321
f 296 321 297
f 297 321 322
f 297 322 298
f 298 322 323
f 298 323 299
f 299 323 324
f 299 324 300
f 300 324 325
f 301 326 302
f 302 326 327
f 302 327 303
f 303 327 328
f 303 328 304
f 304 328 329
f 304 329 305
f 305 329 330
f 305 330 306
f 306 330 331
f 306 331 307
f 307 331 332
f 307 332 308
f 308 332 333
f 308 333 309
f 309 333 334
f 309 334 310
f 310 334 335
f 310 335 311
f 311 335 336
f 311 336 312
f 312 336 337
f 312 337 313
f 313 337 338
f 313 338 314
f 314 338 339
f 314 339 315
f 315 339 340
f 315 340 316
f 316 340 341
f 316 341 317
f 317 341 342
f 317 342 318
f 318 342 343
f 318 343 319
f 319 343 344
f 319 344 320
f 320 344 345
f 320 345 321
f 321 345 346
f 321 346 322
f 322 346 347
f 322 347 323
f 323 347 348
f 323 348 324
f 324 348 349
f 324 349 325
f 325 349 350
f 326 351 327
f 327 351 352
f 327 352 328
f 328 352 353
f 328 353 329
f 329 353 354
f 329 354 330
f 330 354 355
f 330 355 331
f 331 355 356
f 331 356 332
f 332 356 357
f 332 357 333
f 333 357 358
f 333 358 334
f 334 358 359
f 334 359 335
f 335 359 360
f 335 360 336
f 336 360 361
f 336 361 337
f 337 361 362
f 337 362 338
f 338 362 363
f 338 363 339
f 339 363 364
f 339 364 340
f 340 364 365
f 340 365 341
f 341 365 366
f 341 366 342
f 342 366 367
f 342 367 343
f 343 367 368
f 343 368 344
f 344 368 369
f 344 369 345
f 345 369 370
f 345 370 346
f 346 370 371
f 346 371 347
f 347 371 372
f 347 372 348
f 348 372 373
f 348 373 349
f 349 373 374
f 349 374 350
f 350 374 375
f 351 376 352
f 352 376 377
f 352 377 353
f 353 377 378
f 353 378 354
f 354 378 379
f 354 379 355
f 355 379 380
f 355 380 356
f 356 380 381
f 356 381 357
f 357 381 382
f 357 382 358
f 358 382 383
f 358 383 359
f 359 383 384
f 359 384 360
f 360 384 385
f 360 385 361
f 361 385 386
f 361 386 362
f 362 386 387
f 362 387 363
f 363 387 388
f 363 388 364
f 364 388 389
f 364 389 365
f 365 389 390
f 365 390 366
f 366 390 391
f 366 391 367
f 367 391 392
f 367 392 368
f 368 392 393
f 368 393 369
f 369 393 394
f 369 394 370
f 370 394 395
f 370 395 371
f 371 395 396
f 371 396 372
f 372 396 397
f 372 397 373
f 373 397 398
f 373 398 374
f 374 398 399
f 374 399 375
f 375 399 400
f 376 401 377
f 377 401 402
f 377 402 378
f 378 402 403
f 378 403 379
f 379 403 404
f 379 404 380
f 380 404 405
f 380 405 381
f 381 405 406
f 381 406 382
f 382 406 407
f 382 407 383
f 383 407 408
f 383 408 384
f 384 408 409
f 384 409 385
f 385 409 410
f 385 410 386
f 386 410 411
f 386 411 387
f 387 411 412
f 387 412 388
f 388 412 413
f 388 413 389
f 389 413 414
f 389 414 390
f 390 414 415
f 390 415 391
f 391 415 416
f 391 416 392
f 392 416 417
f 392 417 393
f 393 417 418
f 393 418 394
f 394 418 419
f 394 419 395
f 395 419 420
f 395 420 396
f 396 420 421
f 396 421 397
f 397 421 422
f 397 422 398
f 398 422 423
f 398 423 399
f 399 423 424
f 399 424 400
f 400 424 425
f 401 426 402
f 402 426 427
f 402 427 403
f 403 427 428
f 403 428 404
f 404 428 429
f 404 429 405
f 405 429 430
f 405 430 406
f 406 430 431
f 406 431 407
f 407 431 432
f 407 432 408
f 408 432 433
f 408 433 409
f 409 433 434
f 409 434 410
f 410 434 435
f 410 435 411
f 411 435 436
f 411 436 412
f 412 436 437
f 412 437 413
f 413 437 438
f 413 438 414
f 414 438 439
f 414 439 415
f 415 439 440
f 415 440 416
f 416 440 441
f 416 441 417
f 417 441 442
f 417 442 418
f 418 442 443
f 418 443 419
f 419 443 444
f 419 444 420
f 420 444 445
f 420 445 421
f 421 445 446
f 421 446 422
f 422 446 447
f 422 447 423
f 423 447 448
f 423 448 424
f 424 448 449
f 424 449 425
f 425 449 450
f 426 451 427
f 427 451 452
f 427 452 428
f 428 452 453
f 428 453 429
f 429 453 454
f 429 454 430
f 430 454 455
f 430 455 431
f 431 455 456
f 431 456 432
f 432 456 457
f 432 457 433
f 433 457 458
f 433 458 434
f 434 458 459
f 434 459 435
f 435 459 460
f 435 460 436
f 436 460 461
f 436 461 437
f 437 461 462
f 437 462 438
f 438 462 463
f 438 463 439
f 439 463 464
f 439 464 440
f 440 464 465
f 440 465 441
f 441 465 466
f 441 466 442
f 442 466 467
f 442 467 443
f 443 467 468
f 443 468 444
f 444 468 469
f 444 469 445
f 445 469 470
f 445 470 446
f 446 470 471
f 446 471 447
f 447 471 472
f 447 472 448
f 448 472 473
f 448 473 449
f 449 473 474
f 449 474 450
f 450 474 475
f 451 476 452
f 452 476 477
f 452 477 453
f 453 477 478
f 453 478 454
f 454 478 479
f 454 479 455
f 455 479 480
f 455 480 456
f 456 480 481
f 456 481 457
f 457 481 482
f 457 482 458
f 458 482 483
f 458 483 459
f 459 483 484
f 459 484 460
f 460 484 485
f 460 485 461
f 461 485 486
f 461 486 462
f 462 486 487
f 462 487 463
f 463 487 488
f 463 488 464
f 464 488 489
f 464 489 465
f 465 489 490
f 465 490 466
f 466 490 491
f 466 491 467
f 467 491 492
f 467 492 468
f 468 492 493
f 468 493 469
f 469 493 494
f 469 494 470
f 470 494 495
f 470 495 471
f 471 495 496
f 471 496 472
f 472 496 497
f 472 497 473
f 473 497 498
f 473 498 474
f 474 498 499
f 474 499 475
f 475 499 500
f 476 501 477
f 477 501 502
f 477 502 478
f 478 502 503
f 478 503 479
f 479 503 504
f 479 504 480
f 480 504 505
f 480 505 481
f 481 505 506
f 481 506 482
f 482 506 507
f 482 507 483
f 483 507 508
f 483 508 484
f 484 508 509
f 484 509 485
f 485 509 510
f 485 510 486
f 486 510 511
f 486 511 487
f 487 511 512
f 487 512 488
f 488 512 513
f 488 513 489
f 489 513 514
f 489 514 490
f 490 514 515
f 490 515 491
f 491 515 516
f 491 516 492
f 492 516 517
f 492 517 493
f 493 517 518
f 493 518 494
f 494 518 519
f 494 519 495
f 495 519 520
f 495 520 496
f 496 520 521
f 496 521 497
f 497 521 522
f 497 522 498
f 498 522 523
f 498 523 499
f 499 523 524
f 499 524 500
f 500 524 525
f 501 526 502
f 502 526 527
f 502 527 503
f 503 527 528
f 503 528 504
f 504 528 529
f 504 529 505
f 505 529 530
f 505 530 506
f 506 530 531
f 506 531 507
f 507 531 532
f 507 532 508
f 508 532 533
f 508 533 509
f 509 533 534
f 509 534 510
f 510 534 535
f 510 535 511
f 511 535 536
f 511 536 512
f 512 536 537
f 512 537 513
f 513 537 538
f 513 538 514
f 514 538 539
f 514 539 515
f 515 539 540
f 515 540 516
f 516 540 541
f 516 541 517
f 517 541 542
f 517 542 518
f 518 542 543
f 518 543 519
f 519 543 544
f 519 544 520
f 520 544 545
f 520 545 521
f 521 545 546
f 521 546 522
f 522 546 547
f 522 547 523
f 523 547 548
f 523 548 524
f 524 548 549
f 524 549 525
f 525 549 550
f 526 551 527
f 527 551 552
f 527 552 528
f 528 552 553
f 528 553 529
f 529 553 554
f 529 554 530
f 530 554 555
f 530 555 531
f 531 555 556
f 531 556 532
f 532 556 557
f 532 557 533
f 533 557 558
f 533 558 534
f 534 558 559
f 534 559 535
f 535 559 560
f 535 560 536
f 536 560 561
f 536 561 537
f 537 561 562
f 537 562 538
f 538 562 563
f 538 563 539
f 539 563 564
f 539 564 540
f 540 564 565
f 540 565 541
f 541 565 566
f 541 566 542
f 542 566 567
f 542 567 543
f 543 567 568
f 543 568 544
f 544 568 569
f 544 569 545
f 545 569 570
f 545 570 546
f 546 570 571
f 546 571 547
f 547 571 572
f 547 572 548
f 548 572 573
f 548 573 549
f 549 573 574
f 549 574 550
f 550 574 575
f 551 576 552
f 552 576 577
f 552 577 553
f 553 577 578
f 553 578 554
f 554 578 579
f 554 579 555
f 555 579 580
f 555 580 556
f 556 580 581
f 556 581 557
f 557 581 582
f 557 582 558
f 558 582 583
f 558 583 559
f 559 583 584
f 559 584 560
f 560 584 585
f 560 585 561
f 561 585 586
f 561 586 562
f 562 586 587
f 562 587 563
f 563 587 588
f 563 588 564
f 564 588 589
f 564 589 565
f 565 589 590
f 565 590 566
f 566 590 591
f 566 591 567
f 567 591 592
f 567 592 568
f 568 592 593
f 568 593 569
f 569 593 594
f 569 594 570
f 570 594 595
f 570 595 571
f 571 595 596
f 571 596 572
f 572 596 597
f 572 597 573
f 573 597 598
f 573 598 574
f 574 598 599
f 574 599 575
f 575 599 600
f 576 601 577
f 577 601 602
f 577 602 578
f 578 602 603
f 578 603 579
f 579 603 604
f 579 604 580
f 580 604 605
f 580 605 581
f 581 605 606
f 581 606 582
f 582 606 607
f 582 607 583
f 583 607 608
f 583 608 584
f 584 608 609
f 584 609 585
f 585 609 610
f 585 610 586
f 586 610 611
f 586 611 587
f 587 611 612
f 587 612 588
f 588 612 613
f 588 613 589
f 589 613 614
f 589 614 590
f 590 614 615
f 590 615 591
f 591 615 616
f 591 616 592
f 592 616 617
f 592 617 593
f 593 617 618
f 593 618 594
f 594 618 619
f 594 619 595
f 595 619 620
f 595 620 596
f 596 620 621
f 596 621 597
f 597 621 622
f 597 622 598
f 598 622 623
f 598 623 599
f 599 623 624
f 599 624 600
f 600 624 625
