# claycore OBJ export (vertex-color extension: v x y z r g b)
mtllib 69_extreme_poly_chunk.mtl
usemtl clay_default
o claycore
v -0.239999995 0.00554398913 -0.239999995
v -0.219999999 0.00611783378 -0.239999995
v -0.200000003 0.00649399543 -0.239999995
v -0.180000007 0.0066603194 -0.239999995
v -0.159999996 0.00661143055 -0.239999995
v -0.140000001 0.00634890934 -0.239999995
v -0.119999997 0.00588123826 -0.239999995
v -0.239999995 0.00396947889 -0.219999999
v -0.219999999 0.00438035 -0.219999999
v -0.200000003 0.00464968057 -0.219999999
v -0.180000007 0.00476876786 -0.219999999
v -0.159999996 0.0047337641 -0.219999999
v -0.140000001 0.00454579946 -0.219999999
v -0.119999997 0.00421094848 -0.219999999
v -0.239999995 0.0022667048 -0.200000003
v -0.219999999 0.00250132591 -0.200000003
v -0.200000003 0.00265512266 -0.200000003
v -0.180000007 0.00272312551 -0.200000003
v -0.159999996 0.002703137 -0.200000003
v -0.140000001 0.002595803 -0.200000003
v -0.119999997 0.002404592 -0.200000003
v -0.239999995 0.00049068738 -0.180000007
v -0.219999999 0.000541477231 -0.180000007
v -0.200000003 0.000574770558 -0.180000007
v -0.180000007 0.000589491567 -0.180000007
v -0.159999996 0.000585164526 -0.180000007
v -0.140000001 0.000561929308 -0.180000007
v -0.119999997 0.000520536676 -0.180000007
v -0.239999995 -0.00130118534 -0.159999996
v -0.219999999 -0.00143586798 -0.159999996
v -0.200000003 -0.00152415386 -0.159999996
v -0.180000007 -0.00156319037 -0.159999996
v -0.159999996 -0.00155171612 -0.159999996
v -0.140000001 -0.0014901018 -0.159999996
v -0.119999997 -0.00138033845 -0.159999996
v -0.239999995 -0.00305101345 -0.140000001
v -0.219999999 -0.00336681656 -0.140000001
v -0.200000003 -0.00357382884 -0.140000001
v -0.180000007 -0.00366536155 -0.140000001
v -0.159999996 -0.00363845681 -0.140000001
v -0.140002087 -0.00346487109 -0.140000015
v -0.120123439 -0.00151490257 -0.140000507
v -0.239999995 -0.00470225513 -0.119999997
v -0.219999999 -0.00518897455 -0.119999997
v -0.200000003 -0.00550802425 -0.119999997
v -0.180000007 -0.0056490954 -0.119999997
v -0.159999996 -0.00560762919 -0.119999997
v -0.140122667 -0.00367403426 -0.120000497
v -0.120440505 0.00115574338 -0.120001778
f 1 8 2
f 2 8 9
f 2 9 3
f 3 9 10
f 3 10 4
f 4 10 11
f 4 11 5
f 5 11 12
f 5 12 6
f 6 12 13
f 6 13 7
f 7 13 14
f 8 15 9
f 9 15 16
f 9 16 10
f 10 16 17
f 10 17 11
f 11 17 18
f 11 18 12
f 12 18 19
f 12 19 13
f 13 19 20
f 13 20 14
f 14 20 21
f 15 22 16
f 16 22 23
f 16 23 17
f 17 23 24
f 17 24 18
f 18 24 25
f 18 25 19
f 19 25 26
f 19 26 20
f 20 26 27
f 20 27 21
f 21 27 28
f 22 29 23
f 23 29 30
f 23 30 24
f 24 30 31
f 24 31 25
f 25 31 32
f 25 32 26
f 26 32 33
f 26 33 27
f 27 33 34
f 27 34 28
f 28 34 35
f 29 36 30
f 30 36 37
f 30 37 31
f 31 37 38
f 31 38 32
f 32 38 39
f 32 39 33
f 33 39 40
f 33 40 34
f 34 40 41
f 34 41 35
f 35 41 42
f 36 43 37
f 37 43 44
f 37 44 38
f 38 44 45
f 38 45 39
f 39 45 46
f 39 46 40
f 40 46 47
f 40 47 41
f 41 47 48
f 41 48 42
f 42 48 49
